<?xml version="1.0" standalone="no"?>
<!DOCTYPE svg PUBLIC "-//W3C//DTD SVG 20010904//EN"
 "http://www.w3.org/TR/2001/REC-SVG-20010904/DTD/svg10.dtd">
<svg version="1.0" xmlns="http://www.w3.org/2000/svg"
 width="600.000000pt" height="600.000000pt" viewBox="0 0 600.000000 600.000000"
 preserveAspectRatio="xMidYMid meet">

<g transform="translate(0.000000,600.000000) scale(0.100000,-0.100000)"
fill="#000000" stroke="none">
<path d="M481 5979 c-2 -42 37 -70 105 -74 l59 -4 -53 9 c-72 13 -90 25 -101
63 -8 29 -9 30 -10 6z"/>
<path d="M674 5984 c101 -20 114 -36 112 -134 -1 -44 2 -74 6 -67 4 7 7 51 5
99 -1 48 -5 81 -9 75 -6 -9 -8 -9 -8 1 0 6 -8 12 -17 13 -16 0 -16 1 1 8 17 6
17 8 3 14 -8 3 -18 1 -21 -6 -3 -8 -7 -9 -13 -2 -4 6 -35 11 -68 12 l-60 1 69
-14z"/>
<path d="M1035 5980 c-11 -12 -15 -26 -10 -37 6 -15 9 -14 15 9 4 14 11 31 15
37 10 18 0 13 -20 -9z"/>
<path d="M1130 5973 c-17 -16 -33 -40 -36 -55 -4 -26 -2 -28 28 -28 26 0 30 3
18 11 -12 8 -12 12 -2 16 10 4 9 8 -5 19 -16 12 -16 15 -3 24 8 5 20 8 25 6 6
-2 11 5 11 15 0 24 0 24 -36 -8z m-7 -58 c-12 -32 -23 -14 -14 23 1 2 5 1 11
-3 5 -3 7 -12 3 -20z"/>
<path d="M1185 5989 c-4 -6 -5 -12 -2 -15 2 -3 7 2 10 11 7 17 1 20 -8 4z"/>
<path d="M1218 5993 c7 -3 16 -2 19 1 4 3 -2 6 -13 5 -11 0 -14 -3 -6 -6z"/>
<path d="M1990 5985 c0 -8 2 -15 4 -15 2 0 6 7 10 15 3 8 1 15 -4 15 -6 0 -10
-7 -10 -15z"/>
<path d="M4215 5992 c-2 -2 -1 -11 2 -20 4 -15 3 -15 -10 0 -12 16 -14 7 -14
-75 0 -50 -4 -101 -8 -112 -5 -15 -4 -16 3 -6 8 10 11 7 17 -17 3 -17 13 -36
21 -43 17 -14 19 2 2 19 -21 21 -28 171 -10 210 28 57 62 37 37 -22 -16 -38
-21 -156 -6 -156 5 0 7 -8 4 -19 -3 -10 0 -22 7 -26 8 -5 9 7 5 40 -3 26 -8
52 -11 57 -8 12 15 118 29 136 6 8 6 12 -2 12 -18 0 -13 18 7 23 9 2 -2 4 -26
3 -24 -1 -45 -3 -47 -4z"/>
<path d="M4602 5963 c-1 -24 -6 -43 -12 -43 -5 0 -10 -5 -10 -11 0 -5 5 -7 10
-4 6 3 10 2 10 -4 0 -19 -19 -21 -28 -4 -8 13 -10 10 -9 -17 1 -19 -1 -35 -4
-35 -4 0 -16 -8 -26 -18 -11 -9 -23 -14 -28 -10 -4 5 -5 2 -1 -4 11 -19 -4
-38 -16 -22 -8 11 -9 10 -5 -2 3 -9 -1 -29 -9 -45 -14 -26 -13 -29 7 -45 14
-11 18 -18 10 -22 -8 -4 -7 -5 1 -2 7 1 12 8 11 14 -4 15 14 14 21 -1 3 -7 3
-3 1 9 -4 14 1 26 13 35 11 7 20 18 22 23 11 45 58 95 88 95 6 0 14 9 17 20 3
11 9 20 13 20 4 0 5 25 4 55 -2 30 -7 55 -12 55 -4 0 -6 -24 -4 -54 4 -57 6
-53 -73 -122 -24 -20 -43 -42 -43 -48 0 -6 -13 -27 -29 -46 -25 -30 -30 -32
-36 -18 -8 21 27 83 61 104 42 28 65 81 61 138 -3 49 -3 49 -5 9z"/>
<path d="M5170 5985 c-7 -9 -8 -15 -2 -15 5 0 12 7 16 15 3 8 4 15 2 15 -2 0
-9 -7 -16 -15z"/>
<path d="M5182 5960 c-16 -22 -33 -36 -37 -32 -5 4 -5 -1 -2 -10 4 -10 2 -18
-4 -18 -6 0 -7 -4 -4 -10 3 -5 1 -10 -4 -10 -6 0 -11 -4 -11 -10 0 -20 16 -9
37 28 12 20 32 52 44 70 30 45 17 40 -19 -8z"/>
<path d="M5378 5950 c-50 -57 -93 -124 -65 -101 9 7 26 28 37 46 18 29 25 33
53 29 21 -2 27 0 18 5 -8 5 -10 14 -5 22 6 12 5 12 -9 0 -24 -19 -21 -2 5 26
12 13 19 23 16 23 -4 0 -26 -22 -50 -50z"/>
<path d="M5560 5979 c0 -11 -4 -28 -9 -38 -5 -9 -6 -22 -2 -29 4 -7 11 9 17
38 6 28 7 50 2 50 -4 0 -8 -9 -8 -21z"/>
<path d="M5640 5938 c-6 -35 -13 -108 -15 -163 l-3 -100 9 75 c5 41 13 113 19
159 13 100 7 117 -10 29z"/>
<path d="M4157 5976 c-4 -10 -3 -15 3 -11 6 3 10 1 10 -6 0 -7 3 -10 6 -6 3 3
2 13 -4 22 -8 16 -9 16 -15 1z"/>
<path d="M5131 5954 c0 -11 3 -14 6 -6 3 7 2 16 -1 19 -3 4 -6 -2 -5 -13z"/>
<path d="M962 5910 c0 -19 2 -27 5 -17 2 9 2 25 0 35 -3 9 -5 1 -5 -18z"/>
<path d="M1027 5906 c-4 -11 -1 -19 10 -23 14 -6 14 -8 -3 -20 -16 -12 -16
-13 -1 -13 9 0 17 5 17 10 0 7 7 7 21 -1 16 -8 24 -8 33 1 8 10 7 11 -4 8 -21
-7 -50 10 -59 34 -7 19 -8 19 -14 4z"/>
<path d="M1970 5909 c0 -5 5 -7 10 -4 6 3 10 8 10 11 0 2 -4 4 -10 4 -5 0 -10
-5 -10 -11z"/>
<path d="M4711 5913 c-1 -6 -4 -20 -7 -30 -5 -17 -5 -17 6 0 6 10 9 23 6 30
-3 9 -5 9 -5 0z"/>
<path d="M670 5891 c23 -7 23 -8 5 -13 -11 -3 -5 -3 14 -1 36 5 36 8 16 -67
l-6 -25 15 25 c31 51 11 91 -46 89 -23 -1 -23 -1 2 -8z"/>
<path d="M5537 5818 c3 -46 7 -85 9 -87 2 -2 4 32 4 77 0 44 -4 83 -9 86 -5 4
-7 -28 -4 -76z"/>
<path d="M1932 5860 c0 -14 2 -19 5 -12 2 6 2 18 0 25 -3 6 -5 1 -5 -13z"/>
<path d="M1961 5864 c0 -11 3 -14 6 -6 3 7 2 16 -1 19 -3 4 -6 -2 -5 -13z"/>
<path d="M618 5853 c6 -2 18 -2 25 0 6 3 1 5 -13 5 -14 0 -19 -2 -12 -5z"/>
<path d="M1860 5825 c-7 -9 -8 -15 -2 -15 5 0 12 7 16 15 3 8 4 15 2 15 -2 0
-9 -7 -16 -15z"/>
<path d="M548 5823 c12 -2 30 -2 40 0 9 3 -1 5 -23 4 -22 0 -30 -2 -17 -4z"/>
<path d="M666 5812 c-3 -5 1 -9 9 -9 8 0 15 4 15 9 0 4 -4 8 -9 8 -6 0 -12 -4
-15 -8z"/>
<path d="M4606 5812 c-3 -5 1 -9 9 -9 8 0 12 4 9 9 -3 4 -7 8 -9 8 -2 0 -6 -4
-9 -8z"/>
<path d="M5071 5783 c-10 -26 -10 -27 4 -9 8 11 15 23 15 28 0 15 -7 8 -19
-19z"/>
<path d="M528 5793 c6 -2 18 -2 25 0 6 3 1 5 -13 5 -14 0 -19 -2 -12 -5z"/>
<path d="M1846 5777 c3 -10 9 -15 12 -12 3 3 0 11 -7 18 -10 9 -11 8 -5 -6z"/>
<path d="M1937 5737 c6 -75 11 -81 12 -15 1 31 -3 59 -7 62 -5 3 -7 -18 -5
-47z"/>
<path d="M4580 5786 c0 -2 8 -10 18 -17 15 -13 16 -12 3 4 -13 16 -21 21 -21
13z"/>
<path d="M4616 5778 c3 -4 9 -8 15 -8 5 0 9 4 9 8 0 5 -7 9 -15 9 -8 0 -12 -4
-9 -9z"/>
<path d="M1896 5747 c-3 -12 -5 -69 -4 -127 l1 -105 8 108 c4 60 10 115 13
122 3 8 1 17 -3 20 -5 2 -11 -5 -15 -18z"/>
<path d="M4300 5745 c0 -8 2 -15 4 -15 2 0 6 7 10 15 3 8 1 15 -4 15 -6 0 -10
-7 -10 -15z"/>
<path d="M4670 5749 c0 -5 5 -7 10 -4 6 3 10 8 10 11 0 2 -4 4 -10 4 -5 0 -10
-5 -10 -11z"/>
<path d="M1650 5735 c-15 -8 -19 -14 -10 -14 18 -1 46 16 40 23 -3 2 -16 -2
-30 -9z"/>
<path d="M4041 5743 c-1 -6 -4 -20 -7 -30 -5 -17 -5 -17 6 0 6 10 9 23 6 30
-3 9 -5 9 -5 0z"/>
<path d="M1863 5670 c0 -41 2 -58 4 -37 2 20 2 54 0 75 -2 20 -4 3 -4 -38z"/>
<path d="M4281 5714 c0 -11 3 -14 6 -6 3 7 2 16 -1 19 -3 4 -6 -2 -5 -13z"/>
<path d="M1581 5706 c-7 -8 -8 -17 -3 -20 6 -3 12 3 15 14 6 24 4 25 -12 6z"/>
<path d="M4640 5699 c0 -5 5 -7 10 -4 6 3 10 8 10 11 0 2 -4 4 -10 4 -5 0 -10
-5 -10 -11z"/>
<path d="M4226 5684 c-5 -14 -4 -15 9 -4 17 14 19 20 6 20 -5 0 -12 -7 -15
-16z"/>
<path d="M5656 5684 c-4 -9 -4 -19 -1 -22 3 -3 5 0 5 7 0 7 4 9 10 6 6 -3 7 1
4 9 -8 20 -10 20 -18 0z"/>
<path d="M4600 5670 l-45 -7 48 -1 c26 -1 47 3 47 8 0 6 -1 9 -2 8 -2 0 -23
-4 -48 -8z"/>
<path d="M4012 5650 c0 -14 2 -19 5 -12 2 6 2 18 0 25 -3 6 -5 1 -5 -13z"/>
<path d="M5633 5632 c1 -35 -4 -47 -33 -77 -27 -28 -31 -37 -21 -48 10 -10 12
-9 9 3 -2 8 3 14 10 13 6 -2 11 0 10 5 -1 4 10 26 25 49 24 39 25 44 12 69
l-14 28 2 -42z"/>
<path d="M5570 5653 c0 -5 5 -14 11 -20 7 -7 -2 -22 -32 -52 -51 -50 -39 -55
14 -6 40 38 45 56 22 75 -8 7 -15 8 -15 3z"/>
<path d="M4400 5640 l-35 -7 37 -2 c20 0 40 4 43 9 7 11 7 11 -45 0z"/>
<path d="M1406 5625 c4 -8 8 -15 10 -15 2 0 4 7 4 15 0 8 -4 15 -10 15 -5 0
-7 -7 -4 -15z"/>
<path d="M4293 5623 c9 -2 25 -2 35 0 9 3 1 5 -18 5 -19 0 -27 -2 -17 -5z"/>
<path d="M2889 5598 c-9 -7 -26 -28 -38 -45 -18 -27 -26 -31 -41 -23 -31 17
-69 11 -116 -16 -43 -26 -109 -108 -99 -124 3 -5 -3 -11 -13 -14 -10 -4 -25
-19 -33 -34 -8 -15 -22 -33 -32 -40 -20 -15 -67 -104 -67 -127 0 -8 -14 -37
-31 -65 -17 -28 -31 -61 -31 -73 0 -45 31 -140 53 -163 l23 -24 -22 -15 c-29
-21 -38 -76 -19 -128 49 -137 79 -187 126 -210 21 -10 27 -22 31 -57 3 -25 14
-62 25 -83 17 -37 17 -41 2 -67 -10 -15 -17 -41 -17 -58 0 -24 -5 -31 -27 -35
-16 -3 -35 0 -43 7 -32 27 -49 26 -86 -9 -40 -38 -33 -48 10 -14 25 20 28 20
51 5 33 -22 31 -26 -8 -19 -27 4 -35 1 -46 -20 -7 -14 -25 -27 -41 -31 -17 -3
-35 -17 -45 -33 -13 -22 -24 -28 -49 -28 -35 0 -71 28 -78 60 -7 32 -36 -33
-42 -91 -2 -27 -9 -64 -16 -82 -15 -39 -9 -48 19 -32 19 9 21 8 21 -15 0 -16
-6 -25 -15 -25 -8 0 -15 -5 -15 -11 0 -8 -4 -8 -14 0 -11 9 -15 5 -20 -20 -3
-17 -6 -46 -6 -65 0 -18 -4 -36 -10 -39 -10 -6 -5 129 6 146 8 14 -6 11 -20
-4 -8 -7 -19 -45 -26 -85 -6 -40 -14 -72 -17 -72 -6 0 5 113 13 135 11 29 -12
15 -28 -17 -13 -25 -38 -127 -38 -155 0 -2 -5 -3 -11 -3 -10 0 -6 54 7 103 3
9 1 17 -5 17 -16 0 -29 -58 -47 -207 -14 -124 -14 -147 -2 -185 13 -37 19 -43
46 -46 l32 -3 0 55 c0 31 4 56 9 56 5 0 8 -22 8 -50 -2 -41 2 -52 21 -65 27
-20 28 -44 3 -93 -25 -49 -36 -86 -24 -79 6 4 19 0 29 -8 10 -8 29 -15 42 -15
13 0 36 -10 52 -21 l29 -22 56 27 c55 26 59 26 264 26 189 0 209 -2 224 -18
10 -10 17 -24 17 -31 0 -8 8 -11 20 -8 23 6 37 -8 15 -16 -8 -4 -12 -15 -10
-26 2 -12 -3 -25 -12 -29 -12 -7 -9 -13 20 -31 44 -27 48 -26 77 4 13 14 33
25 44 24 15 0 16 -2 6 -6 -8 -3 -33 -20 -55 -37 -22 -18 -63 -47 -92 -66 -40
-25 -56 -43 -67 -74 -14 -39 -14 -39 -15 -12 -1 23 10 40 51 78 29 26 56 48
60 48 17 0 7 17 -16 28 -26 12 -69 5 -60 -9 3 -5 2 -8 -3 -7 -4 1 -27 -1 -51
-5 -54 -9 -62 -28 -62 -145 0 -96 10 -129 29 -94 6 11 11 32 11 46 0 19 5 26
20 26 11 0 20 -4 20 -10 0 -5 -4 -10 -9 -10 -5 0 -11 -13 -14 -29 -3 -15 -17
-41 -30 -57 -20 -24 -24 -42 -26 -100 -1 -39 1 -83 5 -98 6 -24 10 -26 38 -21
30 6 30 5 11 -10 -13 -11 -31 -15 -52 -11 -18 2 -33 1 -33 -5 0 -5 -7 -9 -16
-9 -8 0 -13 -3 -11 -7 3 -5 -15 -9 -39 -11 -26 -2 -44 2 -44 8 0 5 -9 10 -19
10 -34 0 -51 38 -51 111 0 155 -24 202 -122 238 -50 19 -52 19 -30 1 15 -12
18 -20 10 -23 -10 -4 -11 -7 0 -18 13 -14 15 -135 3 -178 -4 -14 -35 -45 -71
-73 -36 -26 -73 -54 -82 -63 -10 -8 -18 -11 -18 -5 0 26 -23 5 -47 -44 -15
-30 -29 -53 -33 -51 -3 2 -6 -11 -7 -29 -1 -46 -19 -77 -41 -70 -12 4 -13 3
-4 -3 7 -6 10 -18 7 -29 -6 -19 -6 -19 9 0 16 19 16 19 16 -6 0 -28 -16 -46
-22 -26 -3 7 -7 5 -11 -6 -5 -11 -3 -15 5 -10 8 5 9 2 3 -12 -35 -85 -43 -126
-26 -152 5 -9 10 5 14 39 4 30 17 68 31 90 15 22 30 65 36 103 11 72 19 96 29
96 4 0 4 -29 0 -65 -6 -45 -19 -84 -41 -125 l-34 -58 12 -99 c13 -115 28 -153
58 -150 18 2 21 -3 18 -33 -2 -29 12 -57 82 -165 47 -71 83 -131 81 -134 -3
-2 -15 4 -27 15 -12 10 -2 -5 21 -35 23 -30 40 -59 38 -65 -8 -25 -54 -16
-117 23 -36 21 -67 37 -69 35 -6 -5 90 -277 104 -294 25 -31 27 -40 8 -33 -13
4 -15 3 -8 -5 16 -17 124 -52 160 -52 27 0 91 16 103 26 2 1 -6 20 -18 43 -11
23 -16 41 -12 41 5 0 17 -18 27 -40 18 -40 18 -40 79 -42 78 -2 82 -2 139 6
59 7 68 12 60 32 -5 13 -1 15 15 10 14 -5 25 -1 36 15 8 12 12 27 9 32 -3 6
-10 1 -14 -11 -11 -30 -32 -29 -24 1 11 33 19 38 40 23 15 -11 19 -25 17 -60
-1 -26 -6 -55 -12 -65 -5 -11 -56 -46 -113 -80 -80 -46 -107 -68 -117 -92 -19
-44 -17 -85 5 -109 22 -24 40 -26 31 -4 -3 9 -9 28 -12 42 -10 42 9 16 27 -36
14 -41 25 -53 95 -99 128 -85 155 -106 171 -137 11 -22 12 -34 4 -52 -14 -32
-31 -31 -25 1 5 30 -4 33 -14 4 -8 -20 -8 -20 -27 2 -11 12 -15 19 -9 16 7 -4
14 0 18 8 6 17 -10 30 -19 15 -5 -7 -12 -5 -21 7 -9 12 -13 14 -14 5 0 -9 -15
-2 -42 17 -23 17 -48 31 -55 31 -7 0 -13 4 -13 9 0 21 -134 49 -145 31 -3 -5
1 -10 9 -10 9 0 16 -6 16 -13 0 -7 53 -62 118 -122 148 -136 166 -158 158
-191 -8 -31 -30 -40 -62 -26 -28 13 -32 47 -7 61 10 5 15 13 11 17 -10 9 -38
-15 -38 -33 0 -8 -21 2 -55 28 -30 23 -53 45 -50 49 3 5 0 12 -6 16 -8 4 -9 3
-5 -4 19 -31 -17 -6 -65 46 -58 62 -139 125 -148 116 -3 -3 8 -15 24 -27 17
-12 42 -35 57 -52 68 -78 172 -202 185 -221 19 -30 7 -54 -29 -54 -26 0 -49
19 -142 113 -109 111 -193 184 -201 175 -3 -2 8 -20 23 -39 74 -91 153 -216
146 -233 -10 -25 -39 -15 -39 14 0 15 -7 26 -18 28 -9 2 -17 -1 -17 -7 0 -6 7
-8 15 -5 11 5 13 2 9 -10 -9 -25 -16 -20 -61 42 -23 31 -67 85 -97 119 -31 34
-56 65 -56 70 0 5 -13 19 -29 31 -19 14 -49 62 -86 139 -31 65 -60 126 -65
135 -6 10 -10 25 -10 33 0 8 -4 15 -8 15 -4 0 -18 20 -30 45 -12 25 -25 45
-30 45 -13 0 -70 102 -77 140 -9 39 -66 160 -76 160 -19 0 -16 -36 6 -74 22
-37 23 -46 13 -79 -6 -20 -18 -37 -25 -37 -8 0 -24 -21 -36 -47 -34 -72 -57
-103 -78 -103 -23 0 -24 -13 -4 -30 11 -9 12 -16 4 -26 -6 -7 -8 -18 -4 -24 4
-6 2 -17 -4 -24 -6 -7 -10 -24 -10 -37 1 -13 -1 -31 -5 -40 -5 -11 21 -45 91
-119 54 -57 88 -98 77 -92 -12 6 -60 52 -106 102 -81 86 -86 90 -112 80 l-27
-10 22 -33 c12 -17 47 -59 78 -91 l56 -60 -53 43 c-28 24 -61 54 -72 68 -17
22 -21 23 -26 9 -4 -10 1 -26 12 -39 16 -18 16 -20 1 -8 -12 10 -17 10 -17 1
0 -6 9 -14 19 -17 11 -3 22 -11 25 -19 7 -17 1 -18 -23 -2 -27 17 -51 -5 -51
-47 0 -22 -14 -53 -40 -93 -33 -49 -41 -70 -44 -118 -2 -35 -20 -105 -45 -174
-22 -63 -41 -118 -41 -122 0 -5 286 -8 635 -8 l634 0 82 36 c93 41 202 60 257
44 19 -5 57 -25 86 -45 l52 -35 259 2 259 3 98 129 c53 71 103 133 110 137 7
5 9 9 5 9 -4 0 8 14 27 31 20 17 45 50 57 75 13 24 27 44 34 44 12 0 29 18 64
70 l24 35 -31 -29 c-18 -16 -34 -38 -38 -48 -3 -10 -9 -16 -14 -13 -12 8 -96
-58 -147 -114 -39 -43 -42 -45 -55 -28 -13 18 -15 18 -29 1 -7 -10 -9 -15 -3
-11 7 4 17 0 23 -7 15 -17 0 -29 -25 -19 -13 5 -15 3 -9 -7 5 -8 3 -11 -6 -8
-31 10 -20 46 33 108 82 97 98 122 98 157 0 38 -15 51 -29 25 -5 -9 -47 -44
-93 -77 -46 -32 -101 -74 -123 -93 -22 -18 -45 -37 -51 -41 -18 -14 -44 8 -44
38 0 25 17 43 120 125 112 90 150 130 136 144 -3 3 -25 -9 -49 -26 -52 -40
-102 -72 -191 -124 l-69 -40 -19 23 -19 24 6 -24 c5 -17 4 -22 -6 -19 -8 3
-15 15 -17 29 -2 20 12 35 80 87 157 119 231 187 184 169 -9 -4 -16 -4 -16 -1
0 3 14 10 30 15 17 6 30 15 30 20 0 6 -9 5 -20 -1 -11 -6 -26 -8 -32 -4 -6 4
-9 3 -6 -2 3 -5 -36 -29 -86 -53 -50 -24 -128 -62 -174 -85 -86 -42 -101 -42
-126 -3 -8 12 -5 22 13 41 l24 25 28 -20 c18 -13 30 -16 34 -9 4 6 4 14 1 17
-3 4 -6 1 -6 -6 0 -7 -5 -9 -11 -6 -6 4 -8 13 -5 21 3 9 0 11 -12 7 -49 -17
90 79 165 115 139 65 212 133 177 163 -10 8 -14 8 -14 0 0 -6 5 -11 11 -11 5
0 7 -5 4 -11 -4 -5 -20 10 -36 35 -16 26 -34 46 -40 46 -8 0 -7 -6 3 -17 8
-10 25 -36 38 -58 l23 -40 -42 47 c-32 36 -56 52 -97 65 -31 9 -72 31 -91 48
-30 26 -37 40 -43 82 -11 86 14 117 49 62 15 -23 15 -23 -3 -9 -16 13 -18 13
-15 1 3 -8 14 -19 25 -25 10 -6 22 -15 26 -20 7 -11 93 -35 123 -35 16 0 32
24 72 110 29 60 48 109 43 109 -6 0 -10 -3 -10 -7 0 -5 -15 -9 -32 -10 -82 -5
-97 -9 -129 -41 -37 -36 -45 -38 -85 -17 -63 32 -75 49 -90 120 -8 38 -23 84
-34 103 -22 36 -26 62 -10 62 6 0 10 -6 10 -14 0 -8 10 -32 22 -53 12 -20 28
-62 34 -93 9 -45 14 -54 30 -52 15 2 16 1 4 -7 -12 -8 -11 -11 5 -17 11 -4 28
-14 37 -22 18 -15 48 -10 48 9 0 8 -4 8 -15 -1 -9 -7 -15 -8 -15 -2 0 12 30
26 49 23 8 -1 10 2 5 10 -4 7 -3 10 2 6 6 -3 29 7 53 23 24 16 60 32 80 36 48
9 71 22 66 37 -3 6 6 30 20 52 24 39 25 39 20 10 -4 -30 -4 -30 44 -29 44 1
50 -2 54 -23 4 -21 2 -22 -12 -11 -9 7 -7 3 5 -8 13 -12 20 -25 17 -28 -4 -3
1 -6 10 -6 19 0 23 15 7 25 -5 3 -10 30 -10 58 0 30 -6 62 -15 74 -13 19 -13
25 0 57 8 19 15 39 15 43 0 5 -18 32 -40 62 -39 51 -54 52 -25 1 24 -42 17
-47 -10 -8 -17 25 -25 50 -24 75 1 33 2 34 8 13 7 -23 8 -22 15 15 4 21 14 52
22 67 21 40 17 91 -11 161 -36 86 -42 171 -20 252 11 41 15 78 11 100 -6 31
-10 35 -39 36 -34 0 -99 24 -133 49 -12 8 -33 35 -49 60 -15 25 -28 46 -29 46
0 1 -11 4 -22 8 -18 6 -28 -3 -62 -56 -43 -68 -72 -97 -100 -101 -10 -1 -31
-13 -47 -25 -31 -24 -60 -28 -102 -11 -36 14 -112 17 -110 5 1 -6 39 -24 84
-42 111 -42 147 -71 172 -139 12 -31 19 -66 16 -78 -10 -39 15 -57 92 -69 70
-10 73 -12 97 -52 15 -25 25 -34 26 -23 0 9 -4 17 -10 17 -5 0 -10 5 -10 11 0
8 4 9 13 0 8 -6 14 -32 14 -58 l1 -48 -19 37 c-10 20 -23 40 -29 43 -5 3 -10
15 -10 26 0 16 -7 19 -55 19 -68 0 -122 21 -134 52 -4 13 -12 45 -16 72 -5 35
-9 45 -16 35 -7 -11 -9 -11 -9 3 0 9 -12 31 -27 49 -21 25 -23 31 -10 26 11
-4 16 -3 12 3 -12 20 -87 51 -178 75 -175 46 -317 102 -317 125 0 15 17 12 63
-11 53 -28 174 -69 201 -69 19 0 19 0 1 14 -11 8 -23 12 -27 10 -5 -3 -8 -1
-8 4 0 5 -9 12 -20 15 -35 9 -41 50 -38 279 3 195 -3 258 -19 198 -3 -11 -9
-20 -14 -20 -15 0 -10 14 15 48 19 26 22 41 19 79 -6 62 9 98 48 119 27 13 57
16 176 12 126 -3 147 -6 158 -22 13 -17 14 -16 30 7 8 14 14 29 13 33 -2 5 10
25 25 46 15 20 31 52 34 72 8 53 19 44 17 -14 -1 -39 -7 -56 -27 -76 -15 -14
-29 -36 -33 -48 -4 -11 -12 -25 -18 -29 -11 -8 -2 -16 21 -20 12 -2 63 -59 78
-88 21 -40 42 -43 60 -9 22 42 75 100 91 100 8 0 14 5 14 10 0 6 8 10 19 10
10 0 24 6 30 14 7 8 20 15 29 15 9 0 53 2 97 5 77 5 135 -6 135 -25 0 -5 6 -9
14 -9 8 0 24 -12 35 -27 11 -16 27 -35 35 -43 31 -33 49 -117 44 -210 l-4 -90
21 20 c15 14 24 17 32 9 14 -14 37 81 30 125 -3 18 -1 39 4 47 8 13 13 6 10
-13 0 -5 3 -8 8 -8 5 0 11 19 15 41 4 23 8 40 11 38 2 -2 5 -37 6 -77 2 -39 7
-72 11 -72 4 0 8 10 8 23 0 37 12 67 23 60 6 -4 7 -1 2 7 -4 7 -2 15 4 19 7 4
13 24 14 44 2 20 6 39 10 43 17 17 7 87 -17 114 -12 15 -31 58 -40 95 -22 87
-57 135 -100 135 -24 0 -27 -3 -16 -10 12 -8 9 -10 -13 -10 -25 0 -27 -3 -21
-26 5 -19 4 -25 -5 -20 -6 4 -4 -7 5 -27 23 -48 9 -86 -41 -114 -37 -21 -115
-28 -115 -11 0 4 -8 5 -17 1 -10 -3 -15 -3 -11 2 8 8 -62 69 -70 61 -2 -3 -11
1 -19 9 -8 8 -25 15 -39 15 -14 0 -41 16 -64 36 -36 33 -40 41 -40 86 0 43 -4
54 -31 79 -28 26 -31 34 -25 69 6 38 5 40 -18 40 -22 0 -25 5 -28 47 -2 25 -7
48 -13 50 -5 1 -25 -20 -43 -48 -18 -28 -35 -49 -38 -47 -2 3 12 30 33 61 29
45 40 54 53 47 34 -18 120 64 120 114 0 9 -24 31 -54 50 -62 40 -86 70 -86
108 0 16 -5 28 -10 28 -32 0 -120 -55 -120 -75 0 -3 -6 -26 -12 -52 -11 -40
-29 -64 -113 -149 -82 -82 -114 -107 -177 -137 -68 -33 -85 -37 -155 -37 -118
1 -192 45 -293 175 -36 46 -41 58 -29 66 11 8 10 9 -4 7 -17 -3 -19 6 -21 85
-2 49 -7 92 -12 95 -5 4 0 17 12 29 l21 23 -5 -104 c-3 -67 -1 -106 6 -110 17
-10 25 77 19 199 -3 61 -4 121 0 133 4 18 7 19 19 7 8 -8 20 -30 27 -49 13
-36 48 -84 109 -148 32 -34 36 -42 28 -64 -7 -17 -7 -31 1 -42 10 -16 10 -16
5 0 -5 18 10 36 16 19 1 -5 10 -2 18 7 13 14 12 15 -3 9 -11 -4 -17 -1 -17 8
0 20 8 19 61 -7 53 -26 125 -25 172 2 42 23 84 33 92 20 12 -20 26 -10 15 11
-14 25 -6 49 15 49 8 0 15 7 15 15 0 8 4 15 9 15 5 0 16 15 25 33 25 48 40 71
52 79 6 4 9 19 7 33 -3 13 -3 32 1 40 5 14 9 13 28 -5 12 -11 38 -28 58 -37
19 -10 46 -30 58 -45 22 -26 22 -29 7 -64 -8 -20 -13 -39 -11 -41 2 -2 21 3
41 11 21 9 45 16 55 16 9 0 25 9 34 19 23 25 7 58 -32 67 -15 4 -40 17 -57 29
-16 13 -48 28 -70 35 -55 17 -95 42 -95 58 0 12 16 48 41 92 5 8 12 22 15 30
3 8 9 22 14 31 5 9 6 26 3 37 -3 12 2 35 11 53 9 18 16 42 16 54 0 12 15 38
34 58 61 65 85 193 51 274 -8 19 -15 62 -15 94 0 32 -4 69 -10 83 -5 14 -10
54 -11 88 -1 77 -16 132 -41 154 -10 10 -18 27 -18 38 0 12 -9 28 -20 36 -11
8 -20 23 -20 33 0 10 -13 31 -29 47 -25 25 -34 28 -67 23 -22 -3 -43 -9 -48
-14 -5 -5 -23 6 -41 25 -39 42 -66 56 -117 62 -23 3 -49 9 -59 15 -10 5 -25 9
-34 9 -9 0 -24 9 -33 19 -23 26 -55 34 -73 19z m248 -369 c6 -6 17 -8 23 -4 7
4 33 8 58 8 39 0 50 -6 88 -42 45 -43 60 -86 27 -75 -14 5 -15 4 -4 -4 8 -6
20 -8 28 -5 8 3 13 -2 13 -16 0 -12 5 -21 11 -21 5 0 7 -4 4 -10 -3 -5 -11
-10 -16 -10 -6 0 -7 5 -3 12 5 7 3 8 -6 3 -10 -6 -12 -4 -7 9 4 11 3 15 -4 11
-6 -4 -7 -14 -3 -24 10 -23 12 -71 3 -65 -4 2 -10 18 -14 34 -4 16 -11 32 -16
35 -5 4 -9 12 -9 18 0 7 4 6 10 -3 5 -8 10 -10 10 -4 0 6 -7 17 -16 25 -14 12
-14 14 2 26 10 7 13 13 7 13 -29 0 -44 -84 -18 -107 4 -5 5 -2 0 6 -6 10 -4
12 4 7 7 -5 10 -14 7 -22 -3 -8 -1 -14 4 -14 6 0 10 -7 10 -16 0 -9 -5 -12
-12 -8 -9 5 -9 2 1 -9 7 -9 19 -17 25 -17 6 0 4 5 -4 10 -13 8 -12 10 3 10 9
0 17 -5 17 -11 0 -6 7 -8 18 -4 14 5 15 4 5 -6 -7 -7 -13 -18 -13 -23 0 -6 4
-4 10 4 15 24 25 2 26 -63 2 -74 15 -129 32 -135 9 -3 10 8 6 41 -5 32 -2 52
10 73 10 16 14 20 10 9 -13 -37 -16 -75 -8 -92 27 -61 30 -100 12 -141 -21
-52 -27 -53 -19 -4 8 47 3 82 -12 82 -7 0 -12 -17 -12 -42 -1 -50 -33 -140
-47 -132 -6 4 -5 9 2 14 7 4 9 16 5 29 -6 19 -8 20 -22 6 -8 -9 -12 -19 -9
-23 4 -3 11 0 16 8 6 8 10 10 10 4 0 -6 -3 -14 -7 -18 -10 -10 -11 -46 -1 -40
10 7 10 3 -3 -34 -6 -17 -20 -34 -31 -37 -12 -5 -17 -12 -13 -22 3 -9 -1 -23
-8 -32 -8 -9 -17 -29 -21 -44 -4 -15 -11 -25 -16 -22 -6 3 -10 1 -10 -4 0 -6
6 -11 13 -12 10 0 10 -2 0 -6 -7 -2 -13 -13 -13 -24 0 -10 -4 -19 -10 -19 -5
0 -10 -7 -10 -15 0 -8 -4 -15 -10 -15 -5 0 -10 21 -10 46 0 25 -4 43 -9 39 -5
-3 -13 0 -17 7 -5 8 -10 6 -16 -8 -6 -13 -7 -9 -4 16 3 19 2 29 -1 23 -7 -18
-23 -16 -37 3 -6 8 -18 16 -26 18 -30 6 -50 18 -50 31 0 23 -31 27 -37 5 -5
-20 -33 -29 -33 -11 0 5 -3 17 -6 25 -4 12 -2 15 9 10 9 -3 26 0 39 8 13 7 32
13 43 13 11 0 21 8 23 18 4 22 -30 23 -48 2 -9 -11 -16 -12 -25 -5 -9 8 -14 6
-19 -5 -4 -11 -12 -14 -27 -10 -18 6 -20 4 -15 -13 4 -12 0 -26 -11 -37 -10
-11 -19 -13 -21 -7 -6 18 -83 -28 -101 -60 -17 -30 -38 -40 -23 -10 5 9 7 23
4 31 -3 9 0 11 8 6 8 -5 11 -4 7 2 -4 6 3 27 13 49 11 21 20 33 20 26 0 -7 4
-12 10 -12 5 0 7 12 5 28 -7 35 41 94 56 71 8 -11 9 -10 7 6 -2 11 2 19 9 18
6 -1 17 4 23 12 10 13 9 15 -10 15 -26 0 -60 -26 -60 -45 0 -7 -9 -15 -19 -18
-25 -6 -49 -44 -54 -87 -2 -19 -9 -34 -15 -33 -7 2 -9 -4 -5 -14 5 -11 3 -14
-6 -8 -10 6 -11 3 -3 -12 6 -10 8 -24 4 -30 -4 -6 -5 -34 -4 -62 3 -37 8 -51
19 -51 8 0 11 -5 8 -10 -4 -6 -11 -7 -17 -4 -7 5 -8 2 -3 -6 6 -10 13 -8 26
11 27 35 51 59 60 59 15 0 21 -70 9 -99 -18 -44 -9 -80 25 -99 36 -21 55 -38
55 -49 0 -14 -46 -8 -74 10 -14 9 -33 17 -42 17 -10 0 -14 3 -11 7 4 3 0 17
-9 31 -9 13 -16 39 -17 58 -1 18 -4 31 -8 28 -4 -2 -11 1 -14 6 -5 7 -12 5
-21 -7 -12 -17 -13 -16 -14 10 0 28 -14 37 -23 15 -3 -7 -6 -1 -6 13 -1 15 -8
32 -16 39 -8 7 -15 19 -15 27 0 8 -4 12 -9 9 -12 -8 -34 50 -28 73 3 11 -7 37
-24 62 -15 23 -26 46 -23 51 3 5 0 7 -7 6 -6 -2 -25 23 -41 55 -29 59 -54 76
-46 32 4 -21 3 -23 -9 -13 -12 10 -43 71 -43 85 0 2 12 -5 26 -16 15 -11 31
-18 37 -14 7 4 2 12 -11 21 -23 15 -29 41 -13 58 5 5 11 18 14 29 3 12 5 7 6
-14 1 -24 4 -32 11 -25 7 7 6 30 -1 69 -13 73 -5 133 27 188 29 51 31 66 5 43
-19 -17 -19 -16 -11 19 9 40 55 115 70 115 17 0 11 -14 -10 -28 -11 -7 -20
-18 -20 -25 0 -6 5 -4 11 6 12 20 34 23 26 3 -3 -7 -1 -18 5 -24 6 -6 6 -12
-3 -17 -7 -5 -10 -4 -6 2 4 6 -4 9 -19 7 -31 -3 -39 -10 -25 -19 6 -3 11 -1
11 5 0 7 6 8 19 1 10 -6 22 -7 26 -3 4 4 6 0 3 -8 -3 -9 -14 -14 -28 -12 -14
2 -20 0 -15 -7 3 -6 11 -8 17 -5 7 5 9 1 5 -9 -6 -15 20 -34 31 -22 3 3 0 5
-7 5 -8 0 -9 5 -1 19 13 25 10 101 -4 101 -6 0 -5 4 3 9 13 8 13 12 0 28 -13
16 -13 17 4 4 22 -17 23 2 0 24 -14 14 -14 18 -2 26 8 5 18 9 22 9 5 0 5 5 2
10 -3 6 4 10 17 10 13 0 28 4 33 9 6 5 40 6 80 2 51 -6 81 -4 110 6 22 8 54
12 70 10 17 -3 39 -1 50 4 29 11 69 11 82 -2z m378 -419 c5 -36 1 -29 -16 25
-6 20 -6 26 1 19 5 -5 12 -25 15 -44z m-20 -10 c7 -24 7 -24 -9 -5 -8 11 -16
27 -16 35 0 20 16 1 25 -30z m-985 -2 c11 -12 20 -27 20 -32 -1 -6 -10 0 -20
13 -14 16 -27 22 -43 18 -21 -6 -21 -6 -3 8 25 19 21 19 46 -7z m8 -75 c-5
-43 -25 -38 -30 6 -3 35 -2 38 15 29 12 -6 17 -18 15 -35z m987 0 c-9 -37 -18
-20 -9 19 4 18 9 27 11 20 3 -7 2 -24 -2 -39z m-1035 -28 c0 -5 -5 -3 -10 5
-5 8 -10 20 -10 25 0 6 5 3 10 -5 5 -8 10 -19 10 -25z m18 -40 c-3 -3 -9 2
-12 12 -6 14 -5 15 5 6 7 -7 10 -15 7 -18z m156 -240 c9 -14 13 -25 8 -25 -5
0 -14 11 -20 25 -6 14 -10 25 -8 25 2 0 11 -11 20 -25z m23 -57 c-3 -8 -6 -5
-6 6 -1 11 2 17 5 13 3 -3 4 -12 1 -19z m384 -50 c34 -1 78 -25 79 -42 0 -5
-10 0 -23 12 -25 23 -47 29 -47 12 0 -6 -27 -10 -60 -10 -39 0 -60 -4 -60 -12
0 -6 -3 -9 -6 -6 -11 11 17 48 36 48 10 0 22 5 26 11 5 8 9 8 14 -1 4 -6 22
-12 41 -12z m44 -38 c3 -6 -1 -7 -9 -4 -18 7 -21 14 -7 14 6 0 13 -4 16 -10z
m99 -43 l28 -28 -21 -35 c-12 -19 -26 -55 -32 -80 -8 -31 -16 -44 -25 -40 -8
3 -13 2 -12 -2 8 -40 -62 -59 -82 -22 -13 25 -5 40 20 40 37 0 53 43 47 120
-6 70 -2 80 34 76 9 -1 28 -14 43 -29z m-284 -208 c0 -6 -4 -7 -10 -4 -5 3
-10 11 -10 16 0 6 5 7 10 4 6 -3 10 -11 10 -16z m55 -20 c-7 -11 -35 -12 -35
-1 0 4 9 8 20 9 11 1 18 -2 15 -8z m-955 -489 c0 -55 -4 -102 -10 -105 -6 -4
-10 33 -10 105 0 72 4 109 10 105 6 -3 10 -50 10 -105z m815 -180 c10 -11 13
-20 7 -20 -6 0 -16 9 -22 20 -6 11 -9 20 -7 20 2 0 12 -9 22 -20z m80 -460
c-9 -16 -18 -30 -21 -30 -2 0 2 14 11 30 9 17 18 30 21 30 2 0 -2 -13 -11 -30z
m-526 -685 c23 -25 33 -76 19 -95 -8 -12 -9 -12 -4 2 7 24 -6 53 -23 53 -8 0
-17 7 -19 15 -4 13 -3 13 10 2 11 -9 18 -10 23 -2 3 5 -1 10 -10 10 -10 0 -14
5 -9 13 6 10 4 10 -7 0 -38 -36 -62 3 -27 45 l23 29 3 -26 c2 -14 12 -35 21
-46z m1429 -244 c-7 -12 -16 -21 -21 -21 -8 0 -2 14 16 38 16 20 20 6 5 -17z
m22 -18 c-1 -5 -8 -19 -16 -33 -8 -14 -13 -17 -10 -7 3 10 6 25 6 33 0 8 5 14
10 14 6 0 10 -3 10 -7z m-1606 -335 c66 -105 62 -127 -4 -25 -58 89 -70 112
-69 129 0 15 -4 21 73 -104z m1623 50 c-3 -7 -5 -2 -5 12 0 14 2 19 5 13 2 -7
2 -19 0 -25z m-471 -843 c-11 -8 -27 -15 -35 -15 -9 1 -2 7 14 15 39 18 44 18
21 0z m-1588 -141 c59 -52 108 -101 110 -107 2 -8 1 -9 -5 -2 -4 6 -35 32 -68
57 -67 52 -155 133 -155 142 0 13 15 2 118 -90z m183 -76 c40 -38 69 -68 63
-68 -6 0 -44 32 -85 71 -41 38 -69 69 -63 67 6 -2 44 -33 85 -70z"/>
<path d="M3177 5219 c7 -7 29 -13 48 -12 19 1 32 -3 29 -8 -3 -5 2 -6 12 -2
15 6 15 7 -1 15 -9 5 -23 7 -31 4 -8 -3 -27 -1 -42 5 -22 8 -25 8 -15 -2z"/>
<path d="M3150 5206 c0 -2 7 -7 16 -10 8 -3 12 -2 9 4 -6 10 -25 14 -25 6z"/>
<path d="M2704 5175 c-4 -8 -11 -12 -16 -9 -6 4 -5 -2 1 -14 14 -27 28 -35 28
-17 0 8 -4 12 -9 9 -4 -3 -8 0 -8 5 0 6 4 11 8 11 5 0 9 7 9 15 0 19 -6 19
-13 0z"/>
<path d="M3284 5183 c5 -9 1 -13 -11 -13 -17 -1 -17 -1 0 -11 9 -6 14 -15 11
-21 -4 -6 -3 -8 3 -5 11 7 10 43 -2 54 -4 5 -5 2 -1 -4z"/>
<path d="M3255 5140 c3 -5 8 -10 11 -10 2 0 4 5 4 10 0 6 -5 10 -11 10 -5 0
-7 -4 -4 -10z"/>
<path d="M2800 5132 c0 -9 -42 -66 -83 -113 -21 -24 -27 -48 -15 -55 7 -4 8
-3 4 4 -4 7 -2 12 3 12 6 0 11 5 11 10 0 12 5 18 60 80 42 48 46 55 30 65 -5
3 -10 2 -10 -3z"/>
<path d="M2734 5112 c-9 -5 -8 -10 1 -19 10 -10 16 -9 26 3 10 12 9 13 -6 8
-13 -5 -16 -4 -11 4 8 14 6 15 -10 4z"/>
<path d="M2697 5103 c-10 -9 -8 -55 1 -71 6 -9 12 -5 22 13 11 21 11 27 0 38
-10 9 -11 9 -6 0 4 -7 2 -13 -5 -13 -6 0 -9 8 -6 20 5 21 4 24 -6 13z"/>
<path d="M2612 4949 c-7 -11 -8 -19 -2 -19 5 0 10 6 10 13 0 8 3 7 10 -3 5 -8
11 -12 14 -10 2 3 -1 13 -8 22 -11 15 -13 15 -24 -3z"/>
<path d="M3068 4963 c-10 -2 -18 -9 -18 -15 0 -5 7 -7 16 -4 9 3 31 6 50 6 21
0 33 4 29 10 -6 10 -45 12 -77 3z"/>
<path d="M2847 4953 c-3 -5 14 -13 39 -19 24 -6 44 -7 44 -3 0 7 -9 11 -62 25
-9 3 -19 1 -21 -3z"/>
<path d="M3350 4930 c0 -11 4 -20 9 -20 5 0 7 9 4 20 -3 11 -7 20 -9 20 -2 0
-4 -9 -4 -20z"/>
<path d="M2586 4903 c-6 -14 -5 -15 5 -6 7 7 10 15 7 18 -3 3 -9 -2 -12 -12z"/>
<path d="M2635 4900 c-4 -6 -11 -7 -17 -4 -6 4 -6 -2 1 -15 7 -11 16 -21 22
-21 6 0 8 4 4 9 -3 5 -1 12 5 16 13 8 13 25 1 25 -6 0 -13 -5 -16 -10z"/>
<path d="M3290 4891 c-8 -5 -34 -12 -57 -16 -24 -4 -43 -11 -43 -16 0 -15 -50
-10 -56 6 -5 13 -9 13 -22 3 -13 -11 -14 -11 -8 0 7 11 4 12 -13 3 -11 -6 -24
-23 -27 -37 -5 -19 -9 -22 -20 -13 -11 9 -14 9 -14 0 0 -12 16 -21 44 -25 8
-1 19 -6 23 -11 4 -4 3 -5 -3 -2 -19 11 -40 -46 -36 -97 2 -25 8 -46 12 -46 5
0 7 19 5 43 -2 24 1 50 6 58 5 8 9 12 10 9 7 -41 11 -54 19 -71 6 -10 15 -19
20 -19 5 0 16 -15 24 -32 8 -18 21 -42 30 -53 11 -13 8 -1 -7 30 -13 28 -22
59 -20 70 3 16 2 17 -6 5 -5 -8 -12 -12 -13 -10 -22 28 -36 60 -28 60 6 0 13
-7 16 -15 4 -8 18 -15 33 -15 20 0 23 2 11 10 -11 7 -6 10 21 10 25 0 43 7 59
25 13 14 29 25 36 25 7 0 18 9 24 19 13 25 13 31 0 31 -5 0 -10 -7 -10 -16 0
-11 -5 -14 -16 -10 -9 3 -18 6 -20 6 -3 0 -3 4 0 8 3 5 -11 7 -30 5 -31 -2
-34 0 -24 12 7 9 33 21 59 29 27 8 47 20 49 30 4 18 -5 20 -28 7z m-110 -136
c16 0 28 8 35 23 11 26 18 27 34 8 9 -11 6 -18 -15 -35 -32 -25 -55 -26 -95
-6 -26 14 -28 18 -18 37 11 20 11 20 23 -3 7 -16 20 -24 36 -24z m20 35 c0 -5
-4 -10 -10 -10 -5 0 -10 5 -10 10 0 6 5 10 10 10 6 0 10 -4 10 -10z"/>
<path d="M3345 4890 c-8 -12 13 -52 24 -46 4 3 6 -17 3 -44 -2 -28 -1 -50 4
-50 5 0 8 24 7 53 -2 70 -1 69 -15 61 -8 -5 -9 0 -6 14 6 22 -6 30 -17 12z"/>
<path d="M2684 4863 c-12 -2 -26 -15 -33 -29 -15 -34 -14 -38 5 -19 11 10 25
14 38 10 12 -3 48 -9 80 -12 l60 -6 -60 -19 c-66 -21 -88 -37 -79 -60 11 -28
138 -40 165 -15 8 6 7 3 -3 -9 -24 -29 -21 -41 4 -18 33 29 42 53 28 70 -9 11
-9 14 2 14 8 0 25 3 38 7 16 4 22 3 17 -5 -3 -6 -2 -13 3 -16 5 -4 8 2 7 11
-2 10 1 21 6 24 5 3 -7 18 -27 33 -31 24 -48 29 -108 31 -40 2 -83 5 -97 8
-14 2 -35 3 -46 0z m136 -93 c0 -5 -4 -10 -9 -10 -6 0 -13 5 -16 10 -3 6 1 10
9 10 9 0 16 -4 16 -10z m38 -17 c-3 -27 -5 -28 -67 -28 -39 0 -66 4 -68 11 -6
19 28 26 41 8 17 -22 59 -14 71 14 14 31 27 28 23 -5z"/>
<path d="M2580 4851 c0 -5 9 -11 20 -14 24 -6 27 8 4 17 -21 8 -24 8 -24 -3z"/>
<path d="M2987 4843 c-4 -3 -7 -11 -7 -17 0 -6 5 -5 12 2 6 6 9 14 7 17 -3 3
-9 2 -12 -2z"/>
<path d="M3391 4794 c0 -11 3 -14 6 -6 3 7 2 16 -1 19 -3 4 -6 -2 -5 -13z"/>
<path d="M2643 4775 c0 -7 6 -11 14 -8 7 3 13 6 13 8 0 2 -6 5 -13 8 -8 3 -14
-1 -14 -8z"/>
<path d="M2670 4760 c-9 -6 -10 -10 -3 -10 6 0 15 5 18 10 8 12 4 12 -15 0z"/>
<path d="M2914 4738 c9 -12 16 -33 16 -45 0 -13 5 -23 10 -23 6 0 10 9 10 19
0 33 -19 71 -35 71 -15 0 -15 -2 -1 -22z"/>
<path d="M2581 4734 c0 -11 3 -14 6 -6 3 7 2 16 -1 19 -3 4 -6 -2 -5 -13z"/>
<path d="M3393 4739 c-11 -11 -6 -56 8 -64 4 -3 5 12 3 32 -4 28 -3 34 5 23 5
-8 13 -12 16 -9 3 4 -1 11 -8 17 -9 8 -17 8 -24 1z"/>
<path d="M2655 4730 c-4 -6 1 -7 11 -3 13 5 15 3 9 -7 -5 -9 -4 -11 4 -6 6 4
9 12 6 17 -8 12 -22 12 -30 -1z"/>
<path d="M2900 4700 c0 -5 5 -10 11 -10 5 0 7 5 4 10 -3 6 -8 10 -11 10 -2 0
-4 -4 -4 -10z"/>
<path d="M2590 4620 c12 -23 30 -18 30 8 0 15 -2 15 -10 2 -6 -10 -10 -11 -10
-2 0 6 -5 12 -10 12 -7 0 -7 -7 0 -20z"/>
<path d="M2958 4623 c7 -3 16 -2 19 1 4 3 -2 6 -13 5 -11 0 -14 -3 -6 -6z"/>
<path d="M2571 4604 c0 -11 3 -14 6 -6 3 7 2 16 -1 19 -3 4 -6 -2 -5 -13z"/>
<path d="M3051 4607 c-1 -21 29 -77 42 -77 9 0 2 16 -18 40 -7 8 -15 24 -18
35 -4 18 -5 18 -6 2z"/>
<path d="M2950 4600 c-8 -5 -10 -10 -5 -10 6 0 17 5 25 10 8 5 11 10 5 10 -5
0 -17 -5 -25 -10z"/>
<path d="M2623 4550 c0 -25 2 -40 4 -33 2 7 12 9 21 6 16 -6 16 -5 1 13 -10
10 -19 28 -22 39 -2 11 -4 0 -4 -25z"/>
<path d="M2590 4565 c0 -8 4 -15 10 -15 5 0 7 7 4 15 -4 8 -8 15 -10 15 -2 0
-4 -7 -4 -15z"/>
<path d="M3341 4524 c0 -11 3 -14 6 -6 3 7 2 16 -1 19 -3 4 -6 -2 -5 -13z"/>
<path d="M2665 4500 c3 -5 8 -10 11 -10 2 0 4 5 4 10 0 6 -5 10 -11 10 -5 0
-7 -4 -4 -10z"/>
<path d="M3130 4495 c0 -9 -8 -27 -17 -42 -17 -26 -17 -26 4 -15 29 16 47 72
23 72 -5 0 -10 -7 -10 -15z"/>
<path d="M2693 4475 c0 -8 5 -11 10 -8 5 3 7 0 5 -8 -3 -8 -11 -13 -17 -11 -6
1 -11 -3 -11 -9 0 -5 -4 -7 -10 -4 -6 3 -7 -1 -4 -10 4 -9 13 -14 21 -10 11 4
14 0 10 -14 -3 -11 1 -28 8 -38 11 -15 12 -14 9 12 -9 66 -9 70 4 67 10 -2 10
2 2 17 -13 26 -27 34 -27 16z"/>
<path d="M3345 4480 c-3 -5 -1 -10 4 -10 6 0 11 5 11 10 0 6 -2 10 -4 10 -3 0
-8 -4 -11 -10z"/>
<path d="M2653 4465 c0 -8 4 -12 9 -9 5 3 6 10 3 15 -9 13 -12 11 -12 -6z"/>
<path d="M2907 4460 c-3 -11 0 -23 5 -27 7 -4 8 -1 3 7 -6 10 -2 11 19 6 19
-5 26 -3 26 8 0 13 -20 26 -40 26 -4 0 -10 -9 -13 -20z"/>
<path d="M2815 4450 c-4 -12 -5 -24 -2 -27 3 -2 8 5 12 17 4 12 5 24 2 27 -3
2 -8 -5 -12 -17z"/>
<path d="M2860 4400 c-6 -11 -8 -20 -6 -20 3 0 10 9 16 20 6 11 8 20 6 20 -3
0 -10 -9 -16 -20z"/>
<path d="M3146 4412 c-4 -6 -2 -21 4 -33 15 -28 21 -20 12 16 -5 18 -11 25
-16 17z"/>
<path d="M3290 4409 c0 -5 -4 -8 -9 -4 -5 3 -12 1 -16 -5 -4 -6 4 -9 18 -8 16
1 23 7 20 15 -6 16 -13 17 -13 2z"/>
<path d="M3200 4349 c0 -5 5 -7 10 -4 6 3 10 8 10 11 0 2 -4 4 -10 4 -5 0 -10
-5 -10 -11z"/>
<path d="M2700 4335 c6 -8 9 -19 5 -24 -4 -7 0 -8 10 -5 14 6 14 8 -1 25 -20
22 -32 26 -14 4z"/>
<path d="M2791 4264 c0 -11 3 -14 6 -6 3 7 2 16 -1 19 -3 4 -6 -2 -5 -13z"/>
<path d="M2876 4242 c-3 -5 1 -9 9 -9 8 0 15 4 15 9 0 4 -4 8 -9 8 -6 0 -12
-4 -15 -8z"/>
<path d="M2336 2214 c-8 -20 -8 -24 2 -24 4 0 8 9 9 20 2 24 -3 26 -11 4z"/>
<path d="M1641 5584 c0 -11 3 -14 6 -6 3 7 2 16 -1 19 -3 4 -6 -2 -5 -13z"/>
<path d="M5650 5577 c-12 -20 -12 -21 2 -9 13 10 17 10 21 0 4 -9 6 -7 6 4 1
26 -14 29 -29 5z"/>
<path d="M1613 5570 c4 -14 7 -35 7 -47 0 -13 4 -23 9 -23 10 0 -3 77 -14 88
-4 4 -5 -4 -2 -18z"/>
<path d="M4215 5580 c-3 -5 -1 -10 4 -10 6 0 11 5 11 10 0 6 -2 10 -4 10 -3 0
-8 -4 -11 -10z"/>
<path d="M1671 5564 c0 -11 3 -14 6 -6 3 7 2 16 -1 19 -3 4 -6 -2 -5 -13z"/>
<path d="M4196 5560 c3 -14 5 -40 4 -58 0 -21 3 -31 10 -27 14 9 12 44 -6 80
-12 25 -13 26 -8 5z"/>
<path d="M5626 5541 c-3 -5 1 -11 9 -14 9 -4 12 -1 8 9 -6 16 -10 17 -17 5z"/>
<path d="M5650 5546 c0 -2 7 -9 15 -16 13 -11 14 -10 9 4 -5 14 -24 23 -24 12z"/>
<path d="M4181 5524 c0 -11 3 -14 6 -6 3 7 2 16 -1 19 -3 4 -6 -2 -5 -13z"/>
<path d="M1862 5510 c0 -14 2 -19 5 -12 2 6 2 18 0 25 -3 6 -5 1 -5 -13z"/>
<path d="M5467 5507 c-25 -21 -27 -28 -25 -91 1 -37 5 -69 9 -72 4 -2 6 9 4
26 -2 16 0 30 5 30 9 0 14 -30 13 -68 -1 -8 6 -10 17 -7 10 3 21 2 24 -4 3 -5
16 -7 29 -4 18 4 19 3 7 -6 -12 -8 -7 -10 20 -9 61 3 116 -2 103 -10 -6 -4 6
-8 28 -8 23 -1 51 -7 65 -14 22 -12 22 -14 6 -27 -15 -13 -15 -13 5 -4 27 14
46 14 38 1 -3 -5 0 -7 8 -4 8 3 18 1 22 -5 3 -6 2 -11 -4 -11 -6 0 -7 -8 -4
-17 6 -16 5 -16 -10 -4 -10 8 -20 11 -24 7 -3 -3 -1 -6 6 -6 9 0 9 -5 1 -21
-7 -11 -9 -26 -7 -33 3 -7 -1 -34 -8 -62 -7 -27 -15 -42 -18 -34 -3 8 -8 22
-10 30 -4 10 -6 7 -6 -7 -1 -12 3 -24 7 -27 5 -3 10 -54 11 -113 2 -127 11
-153 11 -33 0 111 17 202 51 275 l28 60 -62 28 c-67 30 -148 52 -240 62 -59 8
-87 29 -87 66 0 9 -7 19 -15 23 -20 7 -19 50 1 66 14 12 39 51 32 50 -2 -1
-15 -11 -31 -23z m354 -348 c-5 -13 -10 -19 -10 -12 -1 15 10 45 15 40 3 -2 0
-15 -5 -28z"/>
<path d="M5519 5471 c-29 -30 -37 -51 -19 -51 6 0 10 6 10 14 0 8 5 18 12 22
7 5 9 0 6 -14 -4 -15 -2 -19 8 -15 8 3 12 9 9 13 -3 5 4 15 16 24 20 14 19 36
-2 36 -6 0 -24 -13 -40 -29z m36 0 c-3 -6 -11 -11 -17 -11 -6 0 -6 6 2 15 14
17 26 13 15 -4z"/>
<path d="M1873 5415 c0 -38 2 -53 4 -32 2 20 2 52 0 70 -2 17 -4 1 -4 -38z"/>
<path d="M4182 5460 c0 -14 2 -19 5 -12 2 6 2 18 0 25 -3 6 -5 1 -5 -13z"/>
<path d="M5300 5465 c0 -8 2 -15 4 -15 2 0 6 7 10 15 3 8 1 15 -4 15 -6 0 -10
-7 -10 -15z"/>
<path d="M5271 5433 c0 -6 -4 -20 -7 -30 -5 -14 -4 -15 5 -7 7 7 11 20 8 30
-3 11 -5 14 -6 7z"/>
<path d="M5670 5430 c-9 -6 -10 -10 -3 -10 6 0 15 5 18 10 8 12 4 12 -15 0z"/>
<path d="M5553 5423 c-21 -8 -15 -32 10 -37 12 -3 44 -7 72 -10 57 -7 98 -19
175 -52 30 -12 72 -28 93 -34 26 -8 41 -20 48 -37 5 -14 7 -28 4 -31 -3 -3 -5
-1 -5 4 0 5 -12 -9 -26 -30 -46 -67 -66 -141 -72 -263 -4 -103 -3 -117 22
-185 16 -44 30 -111 36 -168 l9 -95 -4 99 c-4 76 -11 116 -31 169 -24 63 -26
78 -21 166 8 127 13 159 31 177 8 8 13 20 10 27 -6 18 40 83 56 79 9 -2 11 6
7 32 -3 19 -3 37 1 39 4 2 2 2 -5 1 -6 -2 -17 4 -23 12 -7 8 -20 14 -29 15
-10 0 -11 2 -3 6 6 2 12 9 12 15 0 7 -5 6 -14 -1 -18 -15 -69 -3 -63 14 3 6 0
12 -6 13 -7 2 -23 4 -37 6 -47 6 -90 19 -96 27 -3 5 -36 9 -74 9 -38 0 -72 5
-75 10 -4 7 3 9 22 5 15 -3 21 -2 13 1 -8 4 -17 10 -20 14 -3 4 -11 5 -17 3z"/>
<path d="M5643 5403 c9 -2 25 -2 35 0 9 3 1 5 -18 5 -19 0 -27 -2 -17 -5z"/>
<path d="M5440 5321 c0 -11 29 -35 35 -29 2 2 -4 12 -15 21 -11 9 -20 13 -20
8z"/>
<path d="M5190 5299 c0 -5 5 -7 10 -4 6 3 10 8 10 11 0 2 -4 4 -10 4 -5 0 -10
-5 -10 -11z"/>
<path d="M5047 5242 c-16 -25 -29 -177 -19 -227 9 -45 10 -39 11 63 0 62 6
122 12 133 12 23 8 51 -4 31z"/>
<path d="M4875 5230 c-3 -5 -1 -10 4 -10 6 0 11 5 11 10 0 6 -2 10 -4 10 -3 0
-8 -4 -11 -10z"/>
<path d="M5778 5223 c-10 -2 -18 -9 -18 -14 0 -6 8 -5 20 1 11 6 20 13 20 15
0 3 -1 4 -2 4 -2 -1 -11 -3 -20 -6z"/>
<path d="M1371 5178 c-1 -21 4 -38 9 -38 11 0 11 14 0 50 -7 22 -8 21 -9 -12z"/>
<path d="M4865 5179 c-4 -18 -3 -35 4 -42 8 -8 11 0 11 31 0 50 -6 54 -15 11z"/>
<path d="M4790 5190 c0 -5 5 -10 10 -10 6 0 10 5 10 10 0 6 -4 10 -10 10 -5 0
-10 -4 -10 -10z"/>
<path d="M4547 5177 c-3 -8 -2 -20 3 -27 4 -7 7 -23 5 -36 -1 -13 2 -24 8 -24
5 0 7 14 3 33 -4 17 -7 40 -7 50 0 20 -5 22 -12 4z"/>
<path d="M1342 5155 c0 -16 2 -22 5 -12 2 9 2 23 0 30 -3 6 -5 -1 -5 -18z"/>
<path d="M4703 5173 c9 -2 23 -2 30 0 6 3 -1 5 -18 5 -16 0 -22 -2 -12 -5z"/>
<path d="M860 5160 c-9 -6 -10 -10 -3 -10 6 0 15 5 18 10 8 12 4 12 -15 0z"/>
<path d="M4502 5150 c11 -17 38 -36 38 -26 0 6 -38 46 -44 46 -3 0 -1 -9 6
-20z"/>
<path d="M1301 5134 c0 -11 3 -14 6 -6 3 7 2 16 -1 19 -3 4 -6 -2 -5 -13z"/>
<path d="M1352 5100 c0 -14 2 -19 5 -12 2 6 2 18 0 25 -3 6 -5 1 -5 -13z"/>
<path d="M4861 5098 c-2 -45 20 -182 31 -193 7 -7 8 -2 3 15 -5 14 -14 66 -20
115 -7 50 -13 78 -14 63z"/>
<path d="M4531 5094 c0 -11 3 -14 6 -6 3 7 2 16 -1 19 -3 4 -6 -2 -5 -13z"/>
<path d="M796 5069 c-17 -83 -31 -429 -17 -429 7 0 11 51 11 148 1 81 5 181
10 222 8 73 6 107 -4 59z"/>
<path d="M5896 5065 c-9 -26 -7 -32 5 -12 6 10 9 21 6 23 -2 3 -7 -2 -11 -11z"/>
<path d="M4576 5048 c-3 -13 -5 -39 -5 -58 1 -27 3 -22 9 20 9 58 7 77 -4 38z"/>
<path d="M665 5038 c-6 -13 -18 -22 -27 -22 -10 1 -15 -2 -12 -7 9 -15 -6 -10
-45 12 l-36 21 30 -25 c17 -15 37 -26 46 -27 25 0 62 34 58 54 -3 14 -6 14
-14 -6z"/>
<path d="M4541 5042 c-1 -8 -6 -10 -13 -6 -10 5 -10 4 -1 -6 15 -16 28 -8 20
12 -4 11 -6 11 -6 0z"/>
<path d="M605 5030 c-3 -6 1 -7 9 -4 18 7 21 14 7 14 -6 0 -13 -4 -16 -10z"/>
<path d="M4621 5024 c0 -11 3 -14 6 -6 3 7 2 16 -1 19 -3 4 -6 -2 -5 -13z"/>
<path d="M412 4970 c3 -36 13 -83 22 -105 12 -26 18 -60 16 -95 -1 -30 1 -52
4 -49 4 3 8 35 10 71 2 36 6 70 10 76 4 7 -1 10 -13 7 -24 -4 -30 11 -37 89
-7 82 -17 87 -12 6z"/>
<path d="M370 4936 c-4 -50 -2 -64 18 -89 12 -17 23 -42 23 -56 2 -23 2 -23 6
-4 2 12 -4 37 -14 55 -9 18 -20 60 -23 93 l-6 60 -4 -59z"/>
<path d="M513 4964 c27 -32 75 -54 119 -54 l33 0 -1 -162 c-1 -90 0 -152 2
-138 2 14 5 91 6 171 l3 147 -32 -5 c-40 -7 -92 13 -116 44 -10 13 -23 23 -28
23 -5 0 1 -12 14 -26z"/>
<path d="M4500 4981 c0 -5 5 -13 10 -16 6 -3 10 -2 10 4 0 5 -4 13 -10 16 -5
3 -10 2 -10 -4z"/>
<path d="M446 4945 c-9 -26 -7 -32 5 -12 6 10 9 21 6 23 -2 3 -7 -2 -11 -11z"/>
<path d="M5045 4935 c12 -58 69 -179 112 -239 24 -34 54 -83 68 -111 14 -27
25 -45 25 -38 0 21 -23 66 -53 105 -16 20 -26 41 -22 47 3 7 1 10 -5 9 -14 -4
-58 75 -99 177 -18 44 -29 67 -26 50z"/>
<path d="M466 4925 c-4 -15 -5 -30 -1 -33 3 -3 5 2 5 12 0 9 5 14 10 11 12 -8
13 5 1 23 -6 10 -10 7 -15 -13z"/>
<path d="M5106 4925 c-3 -9 -6 -22 -5 -28 0 -7 5 -1 10 12 5 13 8 26 5 28 -2
2 -6 -3 -10 -12z"/>
<path d="M341 4899 c-1 -21 5 -42 14 -49 13 -11 13 -8 5 16 -5 16 -11 38 -13
49 -3 11 -5 4 -6 -16z"/>
<path d="M4906 4865 c3 -16 6 -41 6 -54 0 -14 3 -19 7 -12 5 7 13 -5 21 -31 8
-24 21 -48 28 -54 12 -8 12 -15 3 -35 -11 -23 -11 -23 3 -5 16 19 16 19 16 -3
0 -12 4 -19 10 -16 6 4 -3 32 -22 68 -18 34 -43 87 -55 117 -13 31 -21 42 -17
25z"/>
<path d="M4591 4825 c1 -19 18 -51 18 -35 0 8 -4 22 -9 30 -5 8 -9 11 -9 5z"/>
<path d="M5790 4802 c0 -7 -6 -10 -12 -7 -7 4 -5 0 6 -9 10 -8 15 -20 10 -27
-4 -8 -3 -10 4 -5 11 7 17 -13 12 -39 -1 -6 3 -6 10 1 8 8 5 23 -9 55 -12 24
-21 38 -21 31z"/>
<path d="M4851 4784 c0 -11 3 -14 6 -6 3 7 2 16 -1 19 -3 4 -6 -2 -5 -13z"/>
<path d="M5911 4764 c0 -11 3 -14 6 -6 3 7 2 16 -1 19 -3 4 -6 -2 -5 -13z"/>
<path d="M412 4734 c-9 -19 -9 -24 0 -18 8 5 9 2 5 -9 -3 -9 -2 -27 3 -39 7
-18 9 -10 9 35 1 31 -1 57 -2 57 -2 0 -9 -12 -15 -26z"/>
<path d="M4821 4734 c0 -11 3 -14 6 -6 3 7 2 16 -1 19 -3 4 -6 -2 -5 -13z"/>
<path d="M450 4701 c0 -6 5 -13 10 -16 6 -3 10 1 10 9 0 9 -4 16 -10 16 -5 0
-10 -4 -10 -9z"/>
<path d="M5826 4702 c-4 -7 -3 -18 2 -25 6 -7 14 -46 17 -87 4 -41 14 -88 21
-105 8 -16 11 -21 8 -10 -3 11 -10 58 -15 105 -12 101 -22 140 -33 122z"/>
<path d="M4706 4687 c3 -10 9 -15 12 -12 3 3 0 11 -7 18 -10 9 -11 8 -5 -6z"/>
<path d="M4681 4665 c0 -11 6 -33 14 -50 l14 -30 -6 30 c-3 17 -10 39 -14 50
l-8 20 0 -20z"/>
<path d="M445 4660 c-3 -5 -1 -10 4 -10 6 0 11 5 11 10 0 6 -2 10 -4 10 -3 0
-8 -4 -11 -10z"/>
<path d="M4550 4665 c0 -5 5 -17 10 -25 5 -8 10 -10 10 -5 0 6 -5 17 -10 25
-5 8 -10 11 -10 5z"/>
<path d="M4720 4651 c0 -6 4 -13 10 -16 6 -3 7 1 4 9 -7 18 -14 21 -14 7z"/>
<path d="M5010 4638 c0 -9 5 -20 11 -23 17 -11 18 -2 3 19 -12 17 -14 17 -14
4z"/>
<path d="M4581 4594 c0 -11 3 -14 6 -6 3 7 2 16 -1 19 -3 4 -6 -2 -5 -13z"/>
<path d="M5060 4575 c13 -14 25 -25 27 -25 9 0 -33 49 -41 50 -5 0 1 -11 14
-25z"/>
<path d="M777 4567 c-4 -10 -7 -35 -6 -55 l1 -37 9 34 c6 18 9 43 7 55 -3 19
-4 19 -11 3z"/>
<path d="M663 4510 c0 -30 2 -43 4 -27 2 15 2 39 0 55 -2 15 -4 2 -4 -28z"/>
<path d="M436 4498 c-3 -18 -16 -42 -28 -55 -12 -13 -17 -23 -11 -23 6 0 18
11 27 25 9 14 20 24 24 21 4 -3 6 11 4 30 -5 42 -8 43 -16 2z"/>
<path d="M388 4498 c-7 -13 -11 -27 -10 -32 2 -5 -4 -6 -13 -2 -11 4 -14 2 -9
-6 5 -8 2 -9 -9 -5 -9 3 -27 2 -39 -4 -21 -9 -21 -9 5 -4 41 8 33 -2 -28 -31
-62 -31 -69 -44 -9 -17 72 33 112 63 123 93 12 35 7 39 -11 8z"/>
<path d="M170 4365 c-19 -7 -28 -14 -20 -14 8 0 29 6 45 14 39 17 21 18 -25 0z"/>
<path d="M320 4360 c-19 -11 -31 -19 -27 -20 11 0 67 29 67 35 0 7 -1 7 -40
-15z"/>
<path d="M652 4330 c0 -14 2 -19 5 -12 2 6 2 18 0 25 -3 6 -5 1 -5 -13z"/>
<path d="M762 4320 c0 -14 2 -19 5 -12 2 6 2 18 0 25 -3 6 -5 1 -5 -13z"/>
<path d="M642 4240 c0 -14 2 -19 5 -12 2 6 2 18 0 25 -3 6 -5 1 -5 -13z"/>
<path d="M3331 4177 c2 -1 13 -9 24 -17 19 -14 19 -14 6 3 -7 9 -18 17 -24 17
-6 0 -8 -1 -6 -3z"/>
<path d="M2670 4141 c0 -6 4 -13 10 -16 6 -3 7 1 4 9 -7 18 -14 21 -14 7z"/>
<path d="M2660 4104 c0 -10 5 -26 11 -34 9 -12 10 -12 5 4 -6 16 -4 17 9 6 26
-22 26 -5 0 20 -23 22 -25 22 -25 4z"/>
<path d="M3300 4063 c0 -43 92 -121 120 -101 12 8 11 9 -4 4 -13 -5 -17 -2
-13 9 4 8 1 17 -5 21 -7 4 -8 3 -4 -4 4 -7 4 -12 0 -12 -13 0 -74 72 -74 86 0
8 -4 14 -10 14 -5 0 -10 -7 -10 -17z"/>
<path d="M3597 4032 c-48 -51 -31 -95 54 -144 72 -41 69 -102 -8 -169 -25 -21
-42 -46 -46 -66 -6 -30 -4 -33 17 -33 30 0 36 -15 24 -59 -9 -30 -7 -36 21
-60 19 -16 34 -41 40 -66 5 -22 9 -32 10 -22 1 23 17 14 24 -14 4 -15 2 -19
-9 -15 -22 9 -16 -6 17 -40 25 -25 38 -32 58 -28 15 3 41 -3 63 -14 26 -13 35
-15 31 -5 -3 7 0 13 6 13 6 0 11 -5 11 -11 0 -5 5 -7 10 -4 6 4 17 2 24 -4 20
-16 65 -10 58 8 -3 8 -1 12 4 8 5 -3 10 3 10 13 0 10 -4 16 -9 13 -5 -3 -7 1
-6 8 1 8 -1 26 -5 41 -5 15 -3 35 4 48 8 15 8 20 1 16 -6 -4 -16 -4 -21 -1 -6
4 7 24 29 48 52 55 81 93 81 106 0 6 -9 15 -19 21 -17 8 -27 1 -72 -50 -57
-66 -95 -95 -104 -81 -3 5 2 17 11 26 9 9 14 19 10 22 -3 3 6 22 21 41 20 26
22 34 10 29 -15 -5 -16 -3 -7 13 5 10 7 27 3 37 -6 16 -5 16 10 4 23 -18 21
-5 -4 30 -20 28 -20 31 -5 54 9 14 13 25 9 25 -5 0 -23 -23 -42 -50 -48 -72
-110 -140 -127 -140 -22 0 -16 22 16 55 20 21 37 57 54 117 26 88 26 112 0
122 -16 6 -29 -32 -22 -69 3 -13 2 -22 -3 -20 -4 3 -10 -8 -14 -25 -4 -16 -11
-30 -16 -30 -11 0 -11 7 0 48 8 25 7 32 -5 32 -8 0 -14 -6 -14 -14 0 -23 -20
-69 -27 -63 -6 6 15 103 39 176 13 43 19 121 9 121 -5 0 -20 -9 -34 -20 -18
-14 -34 -19 -51 -14 -15 3 -26 9 -26 13 -1 13 -26 38 -46 45 -14 4 -28 -2 -47
-22z m281 -475 c-23 -29 -43 -54 -45 -56 -2 -2 -6 -2 -9 2 -8 8 79 116 89 110
4 -3 -11 -28 -35 -56z m-37 -115 c-5 -9 -19 -26 -32 -37 -22 -20 -20 -14 11
33 17 26 35 30 21 4z"/>
<path d="M5071 4024 c0 -11 3 -14 6 -6 3 7 2 16 -1 19 -3 4 -6 -2 -5 -13z"/>
<path d="M2670 4021 c0 -5 5 -13 10 -16 6 -3 10 -2 10 4 0 5 -4 13 -10 16 -5
3 -10 2 -10 -4z"/>
<path d="M2700 4009 c0 -5 5 -7 10 -4 6 3 14 -4 19 -17 6 -14 10 -17 10 -7 1
16 -17 39 -31 39 -4 0 -8 -5 -8 -11z"/>
<path d="M2761 3994 c-1 -23 21 -48 32 -37 4 3 7 1 7 -5 0 -6 -8 -13 -17 -15
-14 -4 -14 -5 -2 -6 8 0 20 -13 26 -28 l12 -28 -5 30 c-2 17 -1 24 2 17 3 -6
10 -10 15 -6 5 3 -6 20 -24 37 -19 18 -37 39 -40 47 -4 10 -6 9 -6 -6z"/>
<path d="M2673 3940 c0 -30 2 -43 4 -27 2 15 2 39 0 55 -2 15 -4 2 -4 -28z"/>
<path d="M2702 3970 c0 -14 2 -19 5 -12 2 6 2 18 0 25 -3 6 -5 1 -5 -13z"/>
<path d="M2745 3950 c3 -5 8 -10 11 -10 2 0 4 5 4 10 0 6 -5 10 -11 10 -5 0
-7 -4 -4 -10z"/>
<path d="M2720 3941 c0 -10 19 -25 25 -20 1 2 -3 10 -11 17 -8 7 -14 8 -14 3z"/>
<path d="M2130 3915 c0 -8 2 -15 4 -15 2 0 6 7 10 15 3 8 1 15 -4 15 -6 0 -10
-7 -10 -15z"/>
<path d="M3170 3895 c7 -8 17 -15 22 -15 6 0 5 7 -2 15 -7 8 -17 15 -22 15 -6
0 -5 -7 2 -15z"/>
<path d="M3806 3895 c-3 -8 -1 -17 3 -20 5 -3 11 2 15 10 3 8 1 17 -3 20 -5 3
-11 -2 -15 -10z"/>
<path d="M2700 3825 c-7 -9 -8 -15 -2 -15 5 0 12 7 16 15 3 8 4 15 2 15 -2 0
-9 -7 -16 -15z"/>
<path d="M2764 3822 c0 -11 3 -20 6 -20 18 1 23 -3 12 -11 -18 -11 6 -60 44
-90 43 -34 66 -23 39 19 -5 8 -11 25 -13 38 -1 12 -7 32 -13 45 -8 19 -9 18
-5 -10 3 -18 1 -35 -4 -38 -6 -3 -10 0 -10 7 0 10 -3 9 -10 -2 -8 -12 -10 -12
-15 2 -4 10 -4 21 -1 26 3 6 -2 20 -12 32 -17 21 -18 21 -18 2z m77 -81 c-11
-7 -9 -11 9 -21 12 -6 19 -14 17 -17 -6 -6 -57 26 -57 36 0 4 10 8 22 8 16 2
19 0 9 -6z"/>
<path d="M3887 3788 c-9 -31 -2 -33 11 -3 6 14 8 25 3 25 -5 0 -11 -10 -14
-22z"/>
<path d="M3964 3745 c-4 -11 -12 -23 -17 -26 -5 -4 -5 -9 2 -13 6 -4 11 -3 11
2 0 6 7 12 14 15 11 4 13 1 9 -10 -5 -12 -3 -14 6 -8 8 4 17 2 22 -6 4 -7 10
-11 13 -9 2 3 -8 21 -24 40 -27 32 -29 33 -36 15z"/>
<path d="M1949 3718 c0 -18 -2 -46 -3 -61 -1 -16 2 -31 6 -33 4 -3 8 24 8 60
0 66 -9 95 -11 34z"/>
<path d="M2937 3713 c-4 -3 -7 -21 -7 -38 0 -34 25 -65 53 -65 24 0 21 14 -5
25 -17 7 -23 19 -24 42 0 35 -6 47 -17 36z"/>
<path d="M3004 3705 c11 -8 24 -15 30 -15 5 0 1 7 -10 15 -10 8 -23 14 -29 14
-5 0 -1 -6 9 -14z"/>
<path d="M1892 3677 c-10 -12 -11 -32 -2 -94 18 -137 27 -146 23 -23 -5 137
-5 136 -21 117z"/>
<path d="M2969 3688 c-7 -23 -4 -35 7 -35 10 0 11 4 3 13 -7 9 -5 14 8 17 17
4 17 5 1 6 -10 0 -18 0 -19 -1z"/>
<path d="M3146 3681 c-11 -4 -15 -10 -10 -13 10 -6 54 8 54 17 0 7 -21 5 -44
-4z"/>
<path d="M3010 3670 c-13 -9 -13 -10 0 -10 10 0 11 -3 3 -8 -8 -5 -8 -12 3
-27 14 -18 16 -18 41 -3 15 9 29 22 32 29 2 7 -1 9 -8 5 -7 -4 -20 -2 -29 6
-15 11 -15 11 -5 -3 7 -9 10 -19 6 -22 -10 -11 -33 -8 -33 4 0 5 6 7 13 3 9
-6 9 -5 0 8 -7 8 -10 18 -6 21 9 10 0 8 -17 -3z"/>
<path d="M1834 3614 c-29 -36 -64 -96 -64 -109 0 -3 8 -5 18 -5 48 0 62 -59
25 -102 -18 -21 -8 -27 57 -35 l50 -6 -21 59 c-11 33 -23 99 -27 148 l-7 88
-31 -38z"/>
<path d="M3969 3633 c-13 -16 -12 -17 4 -4 9 7 17 15 17 17 0 8 -8 3 -21 -13z"/>
<path d="M1942 3575 c0 -16 2 -22 5 -12 2 9 2 23 0 30 -3 6 -5 -1 -5 -18z"/>
<path d="M4093 3538 c2 -7 0 -21 -5 -32 -7 -13 -7 -16 2 -11 6 4 19 -3 29 -14
10 -12 21 -21 25 -21 9 0 -38 89 -47 90 -5 0 -7 -6 -4 -12z"/>
<path d="M4039 3483 c-13 -16 -12 -17 4 -4 9 7 17 15 17 17 0 8 -8 3 -21 -13z"/>
<path d="M1715 3416 c-25 -41 -124 -186 -166 -243 -30 -40 -34 -73 -9 -73 6 0
9 4 6 9 -8 12 4 42 14 36 4 -3 13 2 20 10 15 18 69 20 105 3 15 -7 34 -30 46
-55 11 -24 24 -43 29 -43 5 0 26 16 47 35 21 20 67 49 102 66 75 35 82 42 110
97 l21 42 -34 0 c-19 0 -37 -6 -39 -12 -4 -9 -8 -10 -14 -2 -4 6 -37 14 -72
18 -126 14 -173 50 -132 102 26 33 26 44 4 44 -10 0 -27 -15 -38 -34z"/>
<path d="M4036 3325 c-3 -8 -2 -25 3 -37 7 -19 9 -17 8 15 -1 41 -2 44 -11 22z"/>
<path d="M4035 3250 c-3 -5 -2 -10 4 -10 5 0 13 5 16 10 3 6 2 10 -4 10 -5 0
-13 -4 -16 -10z"/>
<path d="M2215 2992 c-22 -21 -106 -41 -131 -32 -44 17 -84 13 -84 -9 0 -26
20 -40 71 -50 44 -9 86 -23 144 -47 43 -18 165 -54 181 -54 11 0 14 16 14 68
0 37 -4 73 -9 81 -16 25 -168 60 -186 43z"/>
<path d="M3766 2949 c-25 -29 -26 -36 -25 -142 1 -135 7 -158 42 -175 22 -11
31 -10 55 2 16 8 31 26 34 38 9 49 9 225 -1 250 -7 20 -58 58 -77 58 -1 0 -14
-14 -28 -31z"/>
<path d="M3192 2958 c-5 -7 -12 -56 -14 -109 l-5 -96 53 105 c30 58 54 107 54
109 0 9 -79 1 -88 -9z"/>
<path d="M3237 2837 c-75 -153 -76 -207 -2 -207 21 0 40 9 56 26 21 23 24 36
27 122 2 64 -1 110 -10 136 l-14 38 -57 -115z"/>
<path d="M4226 2845 c-3 -9 -6 -22 -5 -28 0 -7 5 -1 10 12 5 13 8 26 5 28 -2
2 -6 -3 -10 -12z"/>
<path d="M1775 2740 c22 -10 45 -19 52 -19 8 -1 9 -10 3 -31 -5 -18 -5 -30 1
-30 5 0 11 11 15 24 3 15 15 26 27 29 16 2 18 5 7 9 -110 39 -175 51 -105 18z"/>
<path d="M4340 2410 c0 -22 4 -40 9 -40 12 0 20 36 14 60 -9 34 -23 22 -23
-20z"/>
<path d="M3880 2425 c0 -34 40 -189 55 -212 8 -12 15 -30 15 -40 0 -10 4 -24
9 -32 14 -21 5 52 -9 78 -6 12 -19 59 -29 105 -19 88 -40 140 -41 101z"/>
<path d="M1572 2395 c0 -16 2 -22 5 -12 2 9 2 23 0 30 -3 6 -5 -1 -5 -18z"/>
<path d="M1537 2280 c-4 -46 -12 -109 -18 -141 -9 -47 -8 -68 5 -121 9 -35 17
-93 17 -129 l2 -64 7 55 c3 30 10 68 15 84 5 19 4 27 -2 23 -15 -10 -32 109
-22 152 15 60 21 175 11 200 -7 20 -10 7 -15 -59z"/>
<path d="M1670 2309 c0 -19 5 -41 10 -49 7 -10 8 -1 4 30 -8 56 -14 64 -14 19z"/>
<path d="M4356 2324 c-5 -14 -4 -15 9 -4 17 14 19 20 6 20 -5 0 -12 -7 -15
-16z"/>
<path d="M1836 2270 c3 -19 13 -48 20 -65 l14 -30 -6 40 c-3 22 -12 51 -20 65
-14 25 -15 25 -8 -10z"/>
<path d="M1986 2285 c-9 -26 -7 -32 5 -12 6 10 9 21 6 23 -2 3 -7 -2 -11 -11z"/>
<path d="M4368 2247 c-12 -29 -10 -63 3 -50 6 6 9 23 7 39 -2 24 -4 26 -10 11z"/>
<path d="M1950 2210 c0 -11 2 -20 4 -20 2 0 6 9 9 20 3 11 1 20 -4 20 -5 0 -9
-9 -9 -20z"/>
<path d="M4170 2157 c0 -18 -7 -57 -16 -86 -20 -68 -12 -91 9 -26 24 72 31
131 18 139 -7 5 -11 -4 -11 -27z"/>
<path d="M4144 2168 c-4 -7 -14 -23 -22 -35 -8 -13 -10 -23 -5 -23 11 0 47 59
40 66 -3 3 -8 -1 -13 -8z"/>
<path d="M4340 2170 c0 -5 5 -10 11 -10 5 0 7 5 4 10 -3 6 -8 10 -11 10 -2 0
-4 -4 -4 -10z"/>
<path d="M4370 2155 c0 -8 2 -15 4 -15 2 0 6 7 10 15 3 8 1 15 -4 15 -6 0 -10
-7 -10 -15z"/>
<path d="M4070 2131 c0 -5 7 -12 16 -15 14 -5 15 -4 4 9 -14 17 -20 19 -20 6z"/>
<path d="M4397 2113 c-4 -3 -7 -11 -7 -17 0 -6 5 -5 12 2 6 6 9 14 7 17 -3 3
-9 2 -12 -2z"/>
<path d="M4082 2008 c-45 -129 -40 -144 8 -23 42 105 45 115 32 115 -4 0 -22
-42 -40 -92z"/>
<path d="M3986 2042 c1 -26 -7 -87 -18 -137 -15 -70 -20 -134 -21 -288 -1
-108 1 -197 5 -197 11 0 21 206 13 276 -7 64 11 227 24 220 3 -2 7 33 9 79 2
46 0 85 -5 88 -4 3 -7 -16 -7 -41z"/>
<path d="M4406 2081 c-12 -19 -16 -81 -5 -81 11 0 22 41 17 71 -2 19 -5 21
-12 10z"/>
<path d="M1715 2050 c8 -16 15 -39 15 -52 0 -17 3 -19 12 -10 9 9 7 21 -7 52
-10 22 -22 40 -27 40 -5 0 -2 -13 7 -30z"/>
<path d="M1897 1983 c9 -25 43 -80 43 -70 0 11 -39 87 -45 87 -2 0 -1 -8 2
-17z"/>
<path d="M4403 1959 c-7 -7 -13 -22 -13 -33 0 -19 1 -19 16 -4 9 8 14 23 12
32 -2 14 -5 15 -15 5z"/>
<path d="M1590 1931 c0 -5 5 -13 10 -16 6 -3 10 -2 10 4 0 5 -4 13 -10 16 -5
3 -10 2 -10 -4z"/>
<path d="M4392 1883 c-5 -10 -12 -87 -16 -172 -6 -138 -9 -163 -37 -240 -41
-114 -89 -313 -78 -325 13 -15 16 -7 39 94 11 52 38 146 59 209 37 110 39 124
45 284 3 92 4 167 1 167 -2 0 -8 -8 -13 -17z"/>
<path d="M1970 1877 c0 -4 8 -24 19 -45 10 -20 21 -48 25 -62 5 -19 2 -17 -14
10 -23 37 -22 36 10 -85 48 -177 38 -161 120 -209 41 -24 77 -42 79 -41 2 2
-13 23 -32 47 -43 52 -109 175 -131 243 -15 47 -75 160 -76 142z"/>
<path d="M1658 1845 c-3 -14 -1 -25 3 -25 5 0 9 11 9 25 0 14 -2 25 -4 25 -2
0 -6 -11 -8 -25z"/>
<path d="M3992 1830 c0 -14 2 -19 5 -12 2 6 2 18 0 25 -3 6 -5 1 -5 -13z"/>
<path d="M1673 1802 c-9 -6 -10 -17 -2 -45 5 -20 11 -37 12 -37 1 0 2 20 2 45
0 25 0 45 0 45 0 0 -6 -4 -12 -8z"/>
<path d="M1560 1708 c0 -68 67 -242 143 -373 35 -59 42 -66 49 -50 7 16 -6 45
-55 132 -58 101 -117 251 -117 295 0 9 -4 20 -10 23 -6 4 -10 -7 -10 -27z"/>
<path d="M4332 1650 c0 -19 2 -27 5 -17 2 9 2 25 0 35 -3 9 -5 1 -5 -18z"/>
<path d="M4001 1634 c0 -11 3 -14 6 -6 3 7 2 16 -1 19 -3 4 -6 -2 -5 -13z"/>
<path d="M4346 1603 c-6 -14 -5 -15 5 -6 7 7 10 15 7 18 -3 3 -9 -2 -12 -12z"/>
<path d="M3992 1580 c0 -14 2 -19 5 -12 2 6 2 18 0 25 -3 6 -5 1 -5 -13z"/>
<path d="M4315 1569 c-4 -6 -5 -12 -2 -15 2 -3 7 2 10 11 7 17 1 20 -8 4z"/>
<path d="M4330 1550 c0 -5 5 -10 11 -10 5 0 7 5 4 10 -3 6 -8 10 -11 10 -2 0
-4 -4 -4 -10z"/>
<path d="M4299 1492 c-3 -20 -2 -29 4 -23 5 5 7 19 5 32 -3 20 -5 19 -9 -9z"/>
<path d="M4326 1495 c-9 -26 -7 -32 5 -12 6 10 9 21 6 23 -2 3 -7 -2 -11 -11z"/>
<path d="M2067 1430 c3 -11 9 -22 13 -25 5 -3 6 4 3 15 -3 11 -9 22 -13 25 -5
3 -6 -4 -3 -15z"/>
<path d="M3789 1399 c-13 -16 -29 -29 -36 -29 -7 0 -40 -54 -73 -120 l-60
-120 32 0 c18 0 55 -7 82 -15 60 -18 112 -19 123 -2 4 6 8 30 9 52 3 65 16
149 26 168 11 22 3 22 -38 -4 -40 -24 -44 -54 -13 -93 12 -15 19 -29 16 -32
-3 -3 -17 11 -32 30 -37 48 -29 76 32 112 41 25 45 29 25 32 -12 2 -26 12 -32
22 -16 30 -36 30 -61 -1z"/>
<path d="M3715 1379 c-4 -6 -5 -12 -2 -15 2 -3 7 2 10 11 7 17 1 20 -8 4z"/>
<path d="M3946 1309 c5 -59 4 -83 -5 -88 -7 -5 -13 -15 -15 -24 -1 -9 -11 -27
-22 -40 -11 -12 -23 -31 -27 -41 -6 -14 -3 -16 13 -11 17 5 77 -17 90 -34 3
-4 18 -14 33 -24 31 -20 103 -125 99 -144 -2 -7 2 -13 8 -13 6 0 8 5 5 10 -3
6 0 10 8 10 28 0 26 -28 -5 -69 -16 -23 -34 -39 -38 -36 -5 3 -12 0 -16 -6 -4
-8 -3 -9 4 -5 18 11 14 -8 -6 -35 -10 -13 -42 -73 -72 -134 -29 -60 -58 -119
-63 -130 -6 -12 9 -3 39 22 87 73 97 88 91 129 -7 40 5 68 67 164 25 37 43 55
57 55 14 0 28 14 45 44 13 24 28 49 34 55 5 5 9 19 9 30 -1 16 -2 17 -6 5 -2
-11 -18 -19 -41 -22 -20 -2 -39 -3 -41 -1 -9 8 13 24 33 24 19 0 23 6 25 44 1
37 -2 47 -25 65 -15 12 -31 21 -36 21 -4 0 -26 11 -48 25 -43 27 -55 31 -44
14 8 -14 -31 -3 -62 16 -12 8 -38 12 -58 10 -39 -3 -50 12 -13 19 31 7 58 3
85 -12 13 -8 26 -11 29 -9 6 7 -81 47 -101 47 -24 0 -19 28 14 95 l31 60 -31
-35 -30 -34 0 32 c0 18 -5 32 -10 32 -7 0 -8 -28 -4 -81z m215 -245 c-27 -34
-27 -58 1 -86 l21 -21 -21 5 c-29 8 -28 -10 1 -22 12 -5 17 -9 10 -9 -21 -2
-43 11 -43 24 0 6 -9 20 -20 30 -14 12 -20 29 -18 54 1 36 1 36 5 4 2 -17 11
-37 19 -43 12 -10 14 -7 14 19 0 17 8 40 18 50 26 29 36 25 13 -5z"/>
<path d="M3624 1366 c-18 -8 -35 -20 -40 -28 -7 -11 -5 -11 9 0 9 8 36 20 59
27 24 8 34 14 23 14 -11 0 -34 -6 -51 -13z"/>
<path d="M4251 1323 c-1 -6 -4 -20 -7 -30 -5 -15 -4 -15 5 -3 9 12 11 9 12
-15 1 -20 3 -23 6 -10 2 12 -1 32 -6 45 -5 14 -10 20 -10 13z"/>
<path d="M4131 1303 c0 -7 -11 -21 -23 -33 -17 -15 -18 -20 -6 -20 22 0 41 25
35 47 -3 10 -5 13 -6 6z"/>
<path d="M4231 1228 c-1 -23 4 -38 11 -38 6 0 8 3 5 7 -4 3 -2 12 5 20 6 7 8
16 4 20 -3 3 -6 0 -7 -8 -1 -8 -5 -3 -9 11 -7 22 -8 21 -9 -12z"/>
<path d="M66 1112 c-3 -5 19 -23 47 -40 29 -17 70 -53 92 -79 21 -25 40 -42
42 -36 2 6 -10 25 -27 43 -16 17 -30 37 -30 44 0 14 -117 79 -124 68z"/>
<path d="M1910 1095 c1 -12 28 -44 60 -70 16 -12 12 -5 -10 20 -19 22 -38 44
-42 50 -5 6 -8 6 -8 0z"/>
<path d="M3436 1087 c3 -10 9 -15 12 -12 3 3 0 11 -7 18 -10 9 -11 8 -5 -6z"/>
<path d="M3905 1090 c4 -6 -7 -8 -27 -5 -29 4 -30 4 -8 -4 14 -5 19 -9 12 -10
-7 -1 -10 -6 -7 -11 4 -6 12 -4 21 5 9 8 21 12 27 8 7 -4 6 1 -2 10 -15 18
-26 23 -16 7z"/>
<path d="M3932 1065 c-7 -8 -9 -15 -4 -15 5 0 15 7 22 15 16 19 -1 19 -18 0z"/>
<path d="M3733 1053 c-10 -30 -35 -53 -57 -53 -15 0 -17 -3 -8 -12 16 -16 63
19 73 55 8 30 2 37 -8 10z"/>
<path d="M3766 1054 c-23 -23 -20 -30 4 -9 11 10 20 20 20 22 0 7 -9 2 -24
-13z"/>
<path d="M3816 1052 c-2 -4 -1 -14 4 -22 7 -11 9 -9 7 8 -1 24 -3 26 -11 14z"/>
<path d="M3845 1030 c-4 -12 -4 -24 -1 -27 3 -4 6 1 6 10 0 22 6 21 30 -3 18
-18 11 -38 -8 -26 -5 3 -9 -1 -9 -9 0 -8 3 -15 6 -15 13 0 82 52 77 58 -4 3
-12 0 -18 -6 -17 -17 -24 -15 -52 14 l-24 26 -7 -22z"/>
<path d="M5 1020 c3 -5 13 -10 21 -10 8 0 12 5 9 10 -3 6 -13 10 -21 10 -8 0
-12 -4 -9 -10z"/>
<path d="M70 1020 c20 -13 33 -13 25 0 -3 6 -14 10 -23 10 -15 0 -15 -2 -2
-10z"/>
<path d="M110 1015 c0 -8 5 -15 10 -15 6 0 10 7 10 15 0 8 -4 15 -10 15 -5 0
-10 -7 -10 -15z"/>
<path d="M350 1001 c14 -11 28 -21 33 -21 4 0 7 -7 7 -15 0 -8 9 -15 20 -15
25 0 26 12 1 25 -10 6 -34 18 -52 28 l-34 18 25 -20z"/>
<path d="M150 1001 c0 -10 30 -24 37 -17 3 2 -5 9 -16 16 -12 6 -21 7 -21 1z"/>
<path d="M50 983 c14 -9 32 -24 40 -33 8 -8 27 -21 42 -29 15 -8 24 -19 21
-27 -8 -21 -24 -17 -52 15 -14 16 -42 35 -62 44 l-35 14 -1 -33 c-1 -20 4 -34
10 -34 7 0 6 -4 -3 -10 -28 -17 2 -24 125 -27 114 -3 125 -2 125 14 -1 19 -29
75 -30 59 0 -5 -9 -1 -20 9 -11 10 -23 16 -26 12 -3 -3 9 -19 28 -36 31 -29
32 -30 10 -31 -13 0 -29 6 -36 13 -29 27 -65 53 -104 75 -48 26 -67 29 -32 5z"/>
<path d="M280 988 c0 -4 7 -9 15 -9 8 -1 20 -2 26 -3 7 0 15 -8 18 -16 7 -18
41 -26 41 -10 0 7 -9 14 -20 17 -11 3 -20 9 -20 13 0 4 -13 10 -30 12 -16 3
-30 1 -30 -4z"/>
<path d="M2350 981 c8 -5 42 -12 75 -16 40 -4 55 -3 45 4 -8 5 -42 12 -75 16
-40 4 -55 3 -45 -4z"/>
<path d="M2530 980 c0 -5 7 -10 15 -10 8 0 15 5 15 10 0 6 -7 10 -15 10 -8 0
-15 -4 -15 -10z"/>
<path d="M2505 970 c3 -5 8 -10 11 -10 2 0 4 5 4 10 0 6 -5 10 -11 10 -5 0 -7
-4 -4 -10z"/>
<path d="M270 946 c0 -17 7 -27 23 -32 12 -4 31 -13 42 -21 l20 -15 -20 5
c-11 2 -28 8 -37 12 -13 5 -18 2 -18 -11 0 -15 7 -19 38 -18 20 0 53 4 72 8
19 4 44 9 55 11 11 2 22 4 25 5 3 0 -3 5 -13 11 -9 6 -15 14 -12 20 4 5 0 9
-9 9 -8 0 -23 3 -33 6 -13 4 -11 0 7 -15 l25 -21 -40 6 c-22 3 -53 16 -70 28
-52 38 -55 39 -55 12z"/>
<path d="M4115 865 c-14 -13 -25 -30 -25 -37 0 -7 6 -4 12 7 6 11 20 28 32 37
11 10 17 18 13 18 -4 0 -19 -11 -32 -25z"/>
<path d="M3999 793 c-13 -16 -12 -17 4 -4 16 13 21 21 13 21 -2 0 -10 -8 -17
-17z"/>
<path d="M3470 780 c-9 -6 -10 -10 -3 -10 6 0 15 5 18 10 8 12 4 12 -15 0z"/>
<path d="M3715 760 c8 -13 35 -13 55 0 11 7 5 10 -23 10 -23 0 -36 -4 -32 -10z"/>
<path d="M2455 716 c17 -7 34 -11 39 -8 13 7 -16 22 -44 21 -24 0 -24 0 5 -13z"/>
<path d="M2230 702 c0 -9 59 -46 65 -40 2 2 -12 13 -31 26 -19 12 -34 19 -34
14z"/>
<path d="M155 680 c-3 -6 1 -7 9 -4 18 7 21 14 7 14 -6 0 -13 -4 -16 -10z"/>
<path d="M179 653 c-13 -16 -12 -17 4 -4 16 13 21 21 13 21 -2 0 -10 -8 -17
-17z"/>
<path d="M3750 660 c-12 -8 -11 -10 8 -10 12 0 22 5 22 10 0 13 -11 13 -30 0z"/>
<path d="M3270 652 c0 -10 22 -32 32 -32 15 0 8 15 -12 28 -11 7 -20 9 -20 4z"/>
<path d="M3595 611 c3 -6 12 -9 18 -5 7 3 3 -2 -8 -11 l-20 -17 20 4 c25 4 26
32 1 36 -11 3 -16 0 -11 -7z"/>
<path d="M3903 588 c-18 -11 -33 -24 -33 -29 0 -10 21 -1 55 24 31 23 14 26
-22 5z"/>
<path d="M451 544 c0 -11 3 -14 6 -6 3 7 2 16 -1 19 -3 4 -6 -2 -5 -13z"/>
<path d="M2240 546 c0 -3 9 -10 20 -16 11 -6 20 -8 20 -6 0 3 -9 10 -20 16
-11 6 -20 8 -20 6z"/>
<path d="M3490 533 c0 -7 -10 -13 -22 -13 -21 -1 -22 -2 -6 -14 10 -7 15 -16
11 -19 -3 -4 -2 -7 4 -7 21 0 35 28 24 47 -6 10 -11 12 -11 6z"/>
<path d="M4059 523 c-13 -16 -12 -17 4 -4 16 13 21 21 13 21 -2 0 -10 -8 -17
-17z"/>
<path d="M3713 490 c-13 -14 -19 -16 -25 -7 -6 9 -8 9 -8 0 0 -23 17 -22 40 2
13 14 20 25 17 25 -4 0 -15 -9 -24 -20z"/>
<path d="M3557 400 c-3 -11 -1 -18 4 -14 5 3 9 0 9 -5 0 -6 5 -11 10 -11 15 0
12 26 -4 39 -11 9 -15 7 -19 -9z"/>
<path d="M2755 360 c-27 -30 -12 -34 15 -5 13 14 19 25 13 25 -5 0 -18 -9 -28
-20z"/>
<path d="M3516 362 c-3 -6 -1 -14 5 -17 14 -9 20 -2 10 14 -6 8 -11 9 -15 3z"/>
<path d="M5150 366 c0 -2 8 -10 18 -17 15 -13 16 -12 3 4 -13 16 -21 21 -21
13z"/>
<path d="M4164 338 l-19 -23 25 20 c14 11 27 21 29 22 2 2 0 3 -6 3 -5 0 -18
-10 -29 -22z"/>
<path d="M5210 351 c0 -6 4 -13 10 -16 6 -3 7 1 4 9 -7 18 -14 21 -14 7z"/>
<path d="M4171 309 c-13 -11 -31 -17 -39 -14 -10 3 -12 0 -8 -10 3 -8 2 -15
-2 -15 -4 -1 -23 -15 -42 -31 l-35 -31 62 31 c41 21 66 40 76 61 9 16 15 30
14 30 -1 -1 -13 -10 -26 -21z"/>
<path d="M5400 323 c0 -6 8 -17 18 -24 16 -13 16 -13 2 6 -8 11 -16 22 -17 24
-2 2 -3 0 -3 -6z"/>
<path d="M2579 303 c15 -30 22 -32 51 -17 18 10 20 14 8 14 -9 0 -20 -5 -23
-10 -4 -6 -15 -1 -26 12 -20 23 -20 23 -10 1z"/>
<path d="M5256 304 c-11 -8 -16 -14 -10 -14 13 0 39 18 34 24 -3 2 -14 -2 -24
-10z"/>
<path d="M140 304 c0 -6 7 -19 16 -30 14 -18 14 -18 3 6 -14 31 -19 36 -19 24z"/>
<path d="M4255 300 c-3 -5 -13 -10 -21 -10 -7 0 -41 -20 -74 -44 -33 -25 -71
-48 -83 -52 -12 -4 -35 -17 -52 -28 -16 -12 -42 -28 -57 -36 -15 -7 -25 -17
-22 -22 3 -4 1 -8 -5 -8 -6 0 -32 -22 -58 -49 l-48 -49 253 -1 c181 -1 252 1
252 10 0 6 -9 22 -20 36 -11 14 -20 36 -20 49 l0 24 -47 -30 c-65 -41 -153
-74 -166 -61 -7 7 -4 12 9 17 46 14 94 38 94 45 0 5 27 22 59 39 33 16 62 34
66 40 9 14 -5 12 -35 -5 -39 -22 -49 -17 -12 6 18 12 31 24 28 26 -8 8 -67
-38 -61 -47 3 -5 -13 -19 -36 -30 -22 -12 -73 -42 -111 -66 -38 -25 -75 -43
-81 -41 -6 2 10 16 36 31 26 15 47 29 47 31 0 10 -47 -7 -94 -35 -29 -16 -60
-30 -67 -30 -16 0 108 73 223 131 42 21 81 46 86 55 5 9 12 14 17 12 5 -1 9
21 10 50 2 54 1 59 -10 42z"/>
<path d="M5202 294 c10 -10 20 -16 22 -13 3 3 -5 11 -17 18 -21 13 -21 12 -5
-5z"/>
<path d="M5327 290 c-9 -11 -13 -20 -7 -20 5 0 14 9 20 20 6 11 9 20 8 20 -2
0 -11 -9 -21 -20z"/>
<path d="M5290 250 c0 -27 3 -50 8 -50 4 0 7 23 7 50 0 28 -3 50 -7 50 -5 0
-8 -22 -8 -50z"/>
<path d="M5628 270 c-3 -16 -1 -35 4 -42 4 -8 8 4 8 30 0 49 -6 55 -12 12z"/>
<path d="M5661 284 c0 -11 3 -14 6 -6 3 7 2 16 -1 19 -3 4 -6 -2 -5 -13z"/>
<path d="M85 268 c4 -13 11 -27 16 -33 5 -5 4 5 -2 23 -12 36 -24 44 -14 10z"/>
<path d="M5426 272 c-3 -5 1 -9 9 -9 8 0 12 4 9 9 -3 4 -7 8 -9 8 -2 0 -6 -4
-9 -8z"/>
<path d="M5708 273 c7 -3 16 -2 19 1 4 3 -2 6 -13 5 -11 0 -14 -3 -6 -6z"/>
<path d="M5373 255 c0 -8 4 -12 9 -9 5 3 6 10 3 15 -9 13 -12 11 -12 -6z"/>
<path d="M5548 227 c2 -23 7 -45 11 -49 3 -4 5 12 3 35 -2 23 -7 45 -11 49 -3
4 -5 -12 -3 -35z"/>
<path d="M5580 253 c0 -11 7 -20 15 -20 12 0 12 3 3 16 -7 9 -14 18 -15 20 -2
2 -3 -5 -3 -16z"/>
<path d="M5258 236 c-3 -14 -1 -31 3 -38 6 -8 9 1 9 25 0 42 -6 48 -12 13z"/>
<path d="M5330 240 c0 -11 2 -20 4 -20 2 0 6 9 9 20 3 11 1 20 -4 20 -5 0 -9
-9 -9 -20z"/>
<path d="M5750 251 c0 -6 4 -13 10 -16 6 -3 7 1 4 9 -7 18 -14 21 -14 7z"/>
<path d="M180 241 c0 -6 4 -13 10 -16 6 -3 7 1 4 9 -7 18 -14 21 -14 7z"/>
<path d="M5700 246 c0 -2 7 -6 15 -10 8 -3 15 -1 15 4 0 6 -7 10 -15 10 -8 0
-15 -2 -15 -4z"/>
<path d="M5225 230 c3 -5 8 -10 11 -10 2 0 4 5 4 10 0 6 -5 10 -11 10 -5 0 -7
-4 -4 -10z"/>
<path d="M5421 219 c-1 -9 7 -23 17 -30 15 -12 16 -12 6 1 -6 8 -14 22 -17 30
-5 13 -6 12 -6 -1z"/>
<path d="M5660 221 c0 -6 4 -13 10 -16 6 -3 7 1 4 9 -7 18 -14 21 -14 7z"/>
<path d="M5450 216 c0 -2 7 -6 15 -10 8 -3 15 -1 15 4 0 6 -7 10 -15 10 -8 0
-15 -2 -15 -4z"/>
<path d="M5610 211 c0 -6 4 -13 10 -16 6 -3 7 1 4 9 -7 18 -14 21 -14 7z"/>
<path d="M5705 210 c3 -5 12 -7 20 -3 21 7 19 13 -6 13 -11 0 -18 -4 -14 -10z"/>
<path d="M5800 210 c-13 -8 -12 -10 3 -10 9 0 17 5 17 10 0 12 -1 12 -20 0z"/>
<path d="M5210 191 c0 -6 4 -13 10 -16 6 -3 7 1 4 9 -7 18 -14 21 -14 7z"/>
<path d="M5135 170 c-3 -6 1 -7 9 -4 18 7 21 14 7 14 -6 0 -13 -4 -16 -10z"/>
<path d="M4992 163 c-7 -2 -17 -14 -23 -26 -9 -19 -8 -20 3 -7 8 8 20 21 28
28 15 13 13 14 -8 5z"/>
<path d="M5086 137 c-20 -16 -26 -26 -17 -31 6 -4 10 -3 9 2 -2 5 8 19 22 30
34 29 22 28 -14 -1z"/>
<path d="M5491 110 c14 -31 19 -36 19 -24 0 6 -7 19 -16 30 -14 18 -14 18 -3
-6z"/>
<path d="M5031 96 c-8 -10 -9 -16 -1 -21 6 -4 9 -1 8 7 -2 7 3 12 10 10 8 -1
11 2 7 8 -8 13 -10 13 -24 -4z"/>
<path d="M5590 40 c0 -5 5 -10 11 -10 5 0 7 5 4 10 -3 6 -8 10 -11 10 -2 0 -4
-4 -4 -10z"/>
<path d="M5500 30 c-13 -8 -12 -10 3 -10 9 0 17 5 17 10 0 12 -1 12 -20 0z"/>
</g>
</svg>
